<?xml version="1.0" encoding="UTF-8" standalone="no"?>
<svg
   xmlns:dc="http://purl.org/dc/elements/1.1/"
   xmlns:cc="http://creativecommons.org/ns#"
   xmlns:rdf="http://www.w3.org/1999/02/22-rdf-syntax-ns#"
   xmlns:svg="http://www.w3.org/2000/svg"
   xmlns="http://www.w3.org/2000/svg"
   xmlns:sodipodi="http://sodipodi.sourceforge.net/DTD/sodipodi-0.dtd"
   xmlns:inkscape="http://www.inkscape.org/namespaces/inkscape"
   inkscape:version="1.0 (4035a4fb49, 2020-05-01)"
   sodipodi:docname="filled-heart.svg"
   id="svg32"
   version="1.1"
   fill="none"
   viewBox="0 0 20 17"
   height="17"
   width="20">
  <metadata
     id="metadata38">
    <rdf:RDF>
      <cc:Work
         rdf:about="">
        <dc:format>image/svg+xml</dc:format>
        <dc:type
           rdf:resource="http://purl.org/dc/dcmitype/StillImage" />
        <dc:title></dc:title>
      </cc:Work>
    </rdf:RDF>
  </metadata>
  <defs
     id="defs36" />
  <sodipodi:namedview
     inkscape:current-layer="svg32"
     inkscape:window-maximized="1"
     inkscape:window-y="-8"
     inkscape:window-x="-8"
     inkscape:cy="5.0088861"
     inkscape:cx="-1.2529338"
     inkscape:zoom="22.627417"
     showgrid="false"
     id="namedview34"
     inkscape:window-height="705"
     inkscape:window-width="1366"
     inkscape:pageshadow="2"
     inkscape:pageopacity="0"
     guidetolerance="10"
     gridtolerance="10"
     objecttolerance="10"
     borderopacity="1"
     bordercolor="#666666"
     pagecolor="#ffffff" />
  <path
     id="path30"
     fill="#FF6767"
     d="M10 17C9.71527 17 9.44077 16.9015 9.22684 16.7224C8.41888 16.0475 7.63992 15.4132 6.95267 14.8536L6.94916 14.8507C4.93423 13.2102 3.19427 11.7935 1.98364 10.3979C0.630341 8.83778 0 7.35852 0 5.74252C0 4.17244 0.563507 2.72395 1.58661 1.66367C2.62192 0.590857 4.04251 0 5.58716 0C6.74164 0 7.79892 0.348712 8.72955 1.03637C9.19922 1.38348 9.62494 1.80829 10 2.3038C10.3752 1.80829 10.8008 1.38348 11.2706 1.03637C12.2012 0.348712 13.2585 0 14.413 0C15.9575 0 17.3782 0.590857 18.4135 1.66367C19.4366 2.72395 20 4.17244 20 5.74252C20 7.35852 19.3698 8.83778 18.0165 10.3978C16.8059 11.7935 15.0661 13.2101 13.0515 14.8504C12.363 15.4108 11.5828 16.0461 10.773 16.7227C10.5592 16.9015 10.2846 17 10 17ZM5.58716 1.11932C4.37363 1.11932 3.25882 1.58203 2.44781 2.42232C1.62476 3.2753 1.17142 4.45439 1.17142 5.74252C1.17142 7.10165 1.70013 8.31719 2.88559 9.68375C4.03137 11.0047 5.73563 12.3923 7.70889 13.9989L7.71255 14.0018C8.4024 14.5635 9.18442 15.2003 9.99832 15.8802C10.8171 15.199 11.6003 14.5612 12.2916 13.9986C14.2647 12.392 15.9688 11.0047 17.1146 9.68375C18.2999 8.31719 18.8286 7.10165 18.8286 5.74252C18.8286 4.45439 18.3752 3.2753 17.5522 2.42232C16.7413 1.58203 15.6264 1.11932 14.413 1.11932C13.524 1.11932 12.7078 1.38931 11.9872 1.92171C11.3449 2.39637 10.8975 2.99642 10.6352 3.41627C10.5003 3.63217 10.2629 3.76105 10 3.76105C9.73709 3.76105 9.49966 3.63217 9.36478 3.41627C9.10263 2.99642 8.65524 2.39637 8.01285 1.92171C7.29218 1.38931 6.47598 1.11932 5.58716 1.11932Z" />
  <path
     id="path941"
     d="m 14.327859,1.1442533 c -1.43034,0.00282 -2.721504,0.8803752 -3.509501,2.0322464 C 10.61452,3.48899 10.332965,3.8456465 9.9095635,3.7681098 9.3655606,3.6839834 9.1761894,3.0797386 8.8316662,2.726132 7.997609,1.7086631 6.6926466,1.0498388 5.3613614,1.1578914 3.551055,1.1818149 1.8871834,2.524067 1.4101614,4.2594129 0.94845868,5.8028359 1.2686911,7.5423199 2.2432553,8.825149 c 1.4088344,1.89674 3.3021026,3.351026 5.1017689,4.853747 0.8876413,0.713186 1.7521328,1.461655 2.6478347,2.160869 1.7530241,-1.411744 3.5075431,-2.829369 5.2115391,-4.302313 1.303387,-1.18705 2.672756,-2.4473351 3.307751,-4.1362707 C 19.235999,5.4685087 18.613193,3.0459391 16.86419,1.8776004 16.124347,1.37111 15.222433,1.1190043 14.327859,1.1442533 Z"
     style="fill:#ff6767;fill-opacity:1;stroke:none;stroke-width:0.00141421;stroke-linecap:round;stroke-linejoin:bevel;stroke-miterlimit:4;stroke-dasharray:none;stroke-opacity:1" />
  <path
     d="M 4.6526738,1.4395221 C 4.5125709,1.4088992 4.3740036,1.3717555 4.2332276,1.3442524 4.1511625,1.328988 4.0708148,1.3335418 3.989944,1.3508457 c 0,0 -0.5157328,0.3985276 -0.5157328,0.3985276 v 0 c 0.074215,-0.030143 0.1470653,-0.041451 0.2276362,-0.033386 0.1386431,0.023023 0.2742802,0.059014 0.4103041,0.093714 0,0 0.5405223,-0.3701791 0.5405223,-0.3701792 z"
     id="path943"
     style="fill:#ff6767;fill-opacity:1;stroke:none;stroke-width:0.032;stroke-linecap:round;stroke-linejoin:bevel;stroke-miterlimit:4;stroke-dasharray:none;stroke-opacity:1" />
  <path
     d="m 4.6974529,1.2212732 c -0.1565189,0.00864 -0.3123755,-0.00188 -0.4683084,-0.014313 -0.1779852,-0.02052 -0.3555997,-0.00517 -0.5309692,0.026803 -0.1626028,0.025015 -0.3105979,0.09384 -0.4551736,0.1689067 -0.2767743,0.1512663 -0.1013292,0.054476 -0.6908254,0.40054 -0.062618,0.03676 -0.1235821,0.08138 -0.1754324,0.132178 -0.039519,0.07636 -0.1090476,0.1272753 -0.1612785,0.1936144 -0.047209,0.063604 -0.1092876,0.1537476 -0.1291326,0.2305567 0.02205,0.1634931 0.2371541,0.089959 0.3364039,0.057921 0.2894018,-0.1353929 0.2024412,-0.091304 0.7199211,-0.4182231 0.031146,-0.019676 0.054463,-0.049625 0.08171,-0.07442 0.082352,-0.07494 0.1633513,-0.1510517 0.243856,-0.2279713 C 3.5917063,1.5696249 3.7172673,1.4481597 3.8629441,1.3470033 4.1013282,1.2139903 3.7808311,1.3923993 3.403452,1.6161104 3.388868,1.6247604 3.433911,1.6012074 3.449266,1.5940204 3.493033,1.5735334 3.537704,1.5550334 3.5819247,1.5355624 3.6859289,1.4926544 3.7900731,1.4499804 3.8948319,1.4089296 4.0206376,1.3540496 4.1507951,1.3121106 4.2823677,1.2736514 4.46211,1.2145364 4.644914,1.1722835 4.8322537,1.1469108 c 0.2087395,-0.017902 0.4197774,-0.012267 0.6222343,0.043984 0.1143504,0.027773 0.212494,0.084621 0.3111833,0.1457667 0.144991,0.080814 0.2886489,0.1629929 0.4394911,0.2326138 0.1458383,0.063574 0.2947981,0.1193837 0.4418389,0.1800023 0.1478779,0.055162 0.2962159,0.1083838 0.4424297,0.1678766 0.1157871,0.052832 0.2329142,0.1017202 0.3535895,0.1421685 0.102957,0.043022 0.2123011,0.071869 0.3076103,0.1309476 0.06906,0.052207 0.1250731,0.1207731 0.1713764,0.1935486 0.046135,0.086349 0.1008194,0.1655816 0.1612471,0.2425187 0.072607,0.088384 0.1570287,0.1667543 0.2417183,0.2434568 0.1058888,0.088655 0.2114531,0.1750243 0.3046117,0.2774654 0.09433,0.098252 0.1777203,0.2058751 0.2634861,0.3113669 0.077665,0.1000853 0.1737745,0.170734 0.2866011,0.2257412 0.1737335,0.081035 0.356983,0.1371862 0.536609,0.2028468 0.1346151,0.04973 0.2697562,0.096231 0.4103325,0.1257952 0.285198,0.032918 0.678035,-0.1379096 0.723989,-0.4414231 0.0092,-0.095616 0.0056,-0.1918974 0.0041,-0.2877846 -0.0025,-0.1032346 0.0164,-0.2088448 0.06176,-0.3019341 0.04879,-0.1005231 0.141736,-0.1663741 0.220576,-0.2414942 0.08488,-0.075231 0.150571,-0.1677515 0.223624,-0.2538009 0.07639,-0.092621 0.17631,-0.1593697 0.281337,-0.2152163 0.189981,-0.1252845 0.509659,-0.3031106 -0.396204,0.2240838 -0.01734,0.010094 0.03471,-0.020165 0.05231,-0.029805 0.05161,-0.028268 0.05735,-0.030037 0.110739,-0.055379 0.01246,-0.00623 0.09506,-0.047273 0.108447,-0.054924 0.201824,-0.1153229 0.400924,-0.2354373 0.604154,-0.3482636 0.176034,-0.097729 -0.347874,0.2028363 -0.522556,0.3029631 -0.005,0.00288 0.01166,-0.00557 0.01337,-0.011101 0.0013,-0.00419 -0.0043,-0.00765 -0.0064,-0.011474 -0.02829,0.1059351 -0.04497,0.2166615 -0.07272,0.3235102 -0.02866,0.1082875 -0.05984,0.2212365 -0.128401,0.3116871 -0.17392,0.1695774 -0.654317,0.4108338 0.346186,-0.1724721 -0.08043,0.042892 -0.171944,0.054858 -0.258857,0.079188 -0.320609,0.093317 -0.462839,0.2231337 -0.808799,0.4320269 -0.03774,0.067749 -0.01751,0.131197 -0.0013,0.2020679 0,0 0.571794,-0.3037547 0.571794,-0.3037547 v 0 c -0.0064,-0.061319 -0.014,-0.1017784 0.0352,-0.1457334 -0.965296,0.547705 -0.569294,0.28781 -0.312809,0.2164228 0.08615,-0.034188 0.177136,-0.04392 0.265293,-0.070947 0.14493,-0.083365 0.603917,-0.2722925 0.761934,-0.5008631 0.05319,-0.1035307 0.08892,-0.2141943 0.114096,-0.3277868 0.02814,-0.1205623 0.07601,-0.2566367 0.05482,-0.3794778 -0.01057,-0.015068 -0.01741,-0.033605 -0.0317,-0.045205 -0.0083,-0.00675 -0.02209,-0.011184 -0.03154,-0.00613 -0.201932,0.1080359 -0.398155,0.2264377 -0.595963,0.3418517 -0.169974,0.099174 0.342357,-0.1941776 0.51246,-0.2931308 0.03511,-0.020426 -0.147644,0.074461 -0.108053,0.056352 -0.304972,0.1450983 -0.594411,0.3207888 -0.881723,0.4990258 -0.103728,0.064825 -0.199761,0.1392346 -0.274856,0.2370406 -0.07133,0.085861 -0.14116,0.1730999 -0.226068,0.2463567 -0.08493,0.07806 -0.169689,0.1578503 -0.211257,0.2684723 -0.03443,0.1048565 -0.05524,0.2129621 -0.04904,0.3239127 -3.35e-4,0.091593 0.0037,0.1847733 -0.01503,0.2749141 -0.08048,0.2111788 -0.4925907,0.2967217 0.506964,-0.2564814 0.01007,-0.00557 -0.01344,0.019292 -0.02292,0.025812 -0.02833,0.019484 -0.05037,0.014867 -0.08352,0.016118 C 10.519623,3.6177318 10.385713,3.5752889 10.252605,3.5258836 10.074999,3.4593372 9.8888208,3.4156805 9.7193425,3.3281121 9.6147265,3.2784976 9.5244382,3.2143602 9.4512411,3.1232538 9.3616816,3.0198976 9.2798507,2.9095482 9.1835451,2.8120317 9.0909914,2.706841 8.9864256,2.6157201 8.8784183,2.5269888 8.7967509,2.452538 8.7143408,2.3773 8.6432294,2.292739 8.5849523,2.2168414 8.5318121,2.1391346 8.4872075,2.054356 8.4360907,1.973533 8.3738265,1.8992512 8.3000662,1.8381602 8.2025609,1.7702007 8.0900181,1.7402638 7.9813934,1.6944857 7.8616057,1.6532639 7.7421663,1.6119475 7.6280019,1.5562173 7.4808299,1.4988967 7.3340528,1.4414462 7.1844679,1.3904555 7.0387648,1.3284926 6.8900617,1.2742818 6.7452458,1.2101082 6.594718,1.1471598 6.45165,1.0699822 6.312619,0.98466591 6.2099073,0.91808876 6.110729,0.85283812 5.9888046,0.82586525 5.7807518,0.75986268 5.5613265,0.75757563 5.3446486,0.76540759 5.1573175,0.78400516 4.9735746,0.81669849 4.7952613,0.87884111 4.6639585,0.91517747 4.5311618,0.94956 4.407431,1.00774 4.3017941,1.045324 4.1993673,1.0908141 4.0947838,1.1309876 3.799647,1.2479629 3.5213437,1.4077064 3.2587943,1.5860679 3.1191968,1.6913263 3.0016566,1.8202922 2.8754483,1.9407143 2.7951709,2.0169437 2.7151559,2.0939544 2.6305918,2.1654874 2.6027507,2.1890383 2.512891,2.2506015 2.545453,2.2341852 2.7105303,2.1509605 3.2174492,1.8521728 2.9310312,2.0205723 c -0.07148,0.028715 -0.1363355,0.052292 -0.2123979,0.064012 -0.011462,0.00177 -0.023136,0.00257 -0.034347,0.00554 -0.00299,7.909e-4 -0.00632,0.0084 -0.00746,0.00552 -0.00179,-0.00451 0.00275,-0.0093 0.00412,-0.013954 0.036606,-0.074407 0.080513,-0.1459445 0.1365775,-0.20736 0.057,-0.060437 0.109387,-0.1242247 0.1652877,-0.1851428 0.038611,-0.029631 0.077227,-0.058864 0.1179675,-0.085569 C 3.1189758,1.5916891 3.1748707,1.558 3.1559139,1.5686787 2.343396,2.0263884 2.5465341,1.9141998 2.7407718,1.8074344 2.8794668,1.727638 3.0250251,1.6546839 3.183316,1.6238487 c 0.1710344,-0.03849 0.3461686,-0.060871 0.5215529,-0.042408 0.153726,0.012616 0.306979,0.028586 0.4614647,0.025714 0,0 0.5311193,-0.3858807 0.5311193,-0.3858815 z"
     id="path945"
     style="fill:#ff6767;fill-opacity:1;stroke:none;stroke-width:0.032;stroke-linecap:round;stroke-linejoin:bevel;stroke-miterlimit:4;stroke-dasharray:none;stroke-opacity:1" />
  <path
     d="m 10.99432,3.0445653 c 0.02724,-0.1566379 0.06629,-0.3087348 0.133995,-0.4529217 0.06625,-0.122471 0.156289,-0.2302857 0.260703,-0.3217832 0.06006,-0.04303 0.117323,-0.090222 0.180584,-0.1286942 0.02422,-0.014728 0.09874,-0.05571 0.0743,-0.041361 -0.443174,0.2601364 -0.639542,0.365735 -0.390527,0.2305161 0.20919,-0.1205784 0.418379,-0.2411568 0.627569,-0.3617352 0.02488,-0.014711 0.09967,-0.058613 0.07465,-0.044132 -1.09324,0.632833 -0.0483,0.038707 0.258468,-0.150794 -0.983666,0.3562717 -0.589243,0.3568579 -0.404518,0.2455162 0.0011,-6.562e-4 -0.0028,3.803e-4 -0.0036,0.00138 -0.006,0.00771 -0.01102,0.016194 -0.01653,0.024291 -0.06108,0.1200983 -0.120539,0.2419558 -0.214589,0.3397671 -0.01598,0.014728 -0.03178,0.029656 -0.04794,0.044183 -0.06033,0.054222 -0.03676,0.034742 -0.107513,0.080959 -0.02074,0.013548 -0.08367,0.053039 -0.06219,0.040691 0.56462,-0.3246294 0.648405,-0.3632033 0.421794,-0.2532682 -0.105157,0.051177 -0.2148,0.087956 -0.329968,0.1072221 -0.114664,0.00835 -0.228715,0.018097 -0.341974,0.038508 -0.288464,0.055151 -0.02115,-0.072067 -0.595741,0.4043144 -0.01082,0.00897 0.02812,8.15e-5 0.04217,-6.94e-5 0.01786,-1.916e-4 0.03571,-6.388e-4 0.05357,-9.581e-4 0.114285,-5.727e-4 0.227543,0.00508 0.337623,-0.029377 0.364253,-0.1776306 0.587156,-0.2192405 0.68336,-0.5397742 0.03228,-0.071025 0.06684,-0.1304588 0.134209,-0.1726035 -0.173417,0.1029124 -0.349218,0.2019102 -0.520252,0.3087371 -0.01023,0.00639 0.02386,-0.00848 0.03569,-0.00608 0.01513,0.00307 0.02998,0.010767 0.04096,0.021624 0.06703,0.066286 0.09058,0.1673025 0.115221,0.2539263 0.01858,0.163456 -0.01834,0.2842524 -0.148722,0.3847892 -0.246385,0.1186466 0.07325,-0.033257 0.436495,-0.264584 0.02044,-0.013016 -0.04585,0.015875 -0.06934,0.021845 -0.07257,0.018446 -0.147017,0.024119 -0.221342,0.030002 -0.179597,0.00984 -0.228584,-0.1236542 -0.273388,-0.2717512 -0.01831,-0.112054 -0.02937,-0.2816294 0.09982,-0.3294224 -0.797534,0.4404602 -0.498539,0.119471 -0.509059,0.5843769 -0.0155,0.067879 -0.01701,0.1527644 -0.06804,0.2070044 -0.0057,0.0061 -0.02912,0.016498 -0.02166,0.012698 0.196976,-0.1003709 0.393504,-0.2016202 0.590256,-0.3024303 0.07188,-0.1317059 0.191043,-0.2162476 0.310334,-0.30195 0.03397,-0.02224 0.06807,-0.044267 0.101898,-0.066719 0.111156,-0.073779 0.0931,-0.064398 0.20501,-0.1355351 0.03322,-0.021115 0.134487,-0.081823 0.10029,-0.062333 -0.597535,0.3405427 -0.569492,0.3240643 -0.348398,0.2080333 0.145577,-0.083981 0.307671,-0.1235531 0.466447,-0.1726534 0.374596,-0.099034 0.67498,-0.3150323 1.013571,-0.5107444 0.159828,-0.125904 0.338803,-0.2293841 0.485483,-0.3710862 0.141778,-0.1712794 -0.08563,-0.1704715 -0.199428,-0.1771951 -0.164124,-0.00501 -0.324761,-0.042409 -0.488222,-0.05325 -0.29482,0.010275 -0.415462,0.165471 -0.732947,0.3613522 -0.01556,0.0096 -0.02316,0.028914 -0.03025,0.045773 -0.01934,0.046029 -0.01319,0.07629 -0.01212,0.1250756 0.02293,0.1449864 0.08154,0.2832729 0.187552,0.3860387 0.259427,0.1512676 0.503933,-0.1749514 0.723415,-0.3181714 0.01397,-0.00911 0.01457,-0.03001 0.02218,-0.044849 0.0078,-0.015294 0.01612,-0.03036 0.02419,-0.045541 0.05144,-0.088393 0.04973,-0.1923522 0.07821,-0.2871718 0.02213,-0.089286 0.05163,-0.1802482 0.09997,-0.2589868 0.02319,-0.030163 0.02725,-0.040241 0.05852,-0.062299 0.01123,-0.00792 0.04778,-0.0271994 0.03594,-0.0202222 -0.965178,0.5685854 -0.653324,0.3392718 -0.441803,0.2762536 0.119074,-0.021299 0.240888,-0.018736 0.36142,-0.018535 0.114117,-0.00241 0.226983,0.018088 0.337703,0.043622 0.124966,0.035153 0.251347,0.063633 0.380122,0.080093 0.112207,0.011114 0.225066,0.010767 0.33769,0.011327 0.09821,0.00482 0.194954,0.023699 0.292703,0.033837 0.107733,0.00333 0.214337,0.012707 0.321218,0.026151 0.157098,0.022214 0.309653,0.065486 0.462432,0.1068235 0.107079,0.026456 0.213768,0.055112 0.318722,0.089097 0.112492,0.035255 0.226489,0.065287 0.339432,0.09892 0.103672,0.031668 0.207365,0.062054 0.30551,0.108499 0.07794,0.050042 0.150977,0.108126 0.225331,0.1635729 0.119805,0.087493 0.229466,0.1875731 0.347591,0.2771859 0.08121,0.059558 0.147723,0.1352255 0.212674,0.2114761 0.09017,0.1030008 0.183523,0.203116 0.278204,0.3019631 0.07519,0.085366 0.152196,0.1689021 0.227254,0.2544383 0.07231,0.092575 0.150945,0.1799851 0.227015,0.2695047 0.08819,0.098004 0.170412,0.1993161 0.244294,0.3083584 0.07579,0.1230756 0.145054,0.2502832 0.209128,0.3798297 0.05322,0.088592 0.08716,0.1832572 0.102505,0.2850009 0.0105,0.09835 0.0092,0.1974593 0.0089,0.2962253 -4.77e-4,0.092684 -0.0016,0.1853668 -8.99e-4,0.2780518 0.0024,0.1382539 0.0016,0.2765389 0.002,0.4148084 -8.9e-5,0.145125 -1.5e-5,0.290254 -4.44e-4,0.4353793 0.0016,0.136697 -9.18e-4,0.2723846 -0.01265,0.4085531 -0.01892,0.1787215 -0.01833,0.358667 -0.0328,0.5376192 -0.02027,0.1950748 -0.0505,0.3895544 -0.09634,0.5803123 -0.03487,0.1503695 -0.05515,0.3032419 -0.103109,0.4502995 -0.03972,0.1197669 -0.09375,0.2340262 -0.140928,0.3510689 -0.05995,0.1259432 -0.125527,0.2495781 -0.194569,0.3708121 -0.06534,0.1144305 -0.135558,0.2261116 -0.205668,0.3376851 -0.08111,0.1259288 -0.149289,0.2595222 -0.223474,0.3895168 -0.05114,0.1024241 -0.111239,0.2023964 -0.184606,0.2904241 -0.07241,0.078506 -0.149952,0.152099 -0.226187,0.2268481 -0.07087,0.083979 -0.151389,0.1544881 -0.23705,0.2225729 -0.105506,0.066157 -0.200832,0.1460711 -0.304902,0.2143011 -0.128314,0.100984 -0.273619,0.175137 -0.411136,0.262244 -0.07666,0.05706 -0.162418,0.108126 -0.228931,0.177867 -0.0099,0.01042 -0.09713,0.120492 -0.104699,0.129997 -0.09192,0.127934 -0.182181,0.2576 -0.264551,0.391927 -0.03394,0.04796 -0.06303,0.09958 -0.09645,0.14779 -0.117499,0.169499 -0.641421,0.412204 0.458397,-0.245169 -0.07699,0.05652 -0.03728,-0.06897 -0.02384,-0.10074 0.06725,-0.108207 0.146793,-0.207696 0.224927,-0.308106 0.103208,-0.14369 0.222122,-0.275266 0.332904,-0.413078 0.09728,-0.101815 0.183483,-0.2127886 0.286897,-0.3084502 0.0774,-0.065552 0.164121,-0.1199116 0.242181,-0.1843869 0.196331,-0.1168852 0.467165,-0.2879503 -0.44902,0.2611587 -0.0082,0.0049 0.01819,-0.00664 0.02772,-0.00715 0.02771,-0.00147 0.02863,0.00797 0.04754,0.026727 0.03721,0.088669 -0.02203,0.2359224 -0.05482,0.3209714 -0.08417,0.165835 -0.231716,0.270528 -0.379561,0.374969 -0.105903,0.08179 -0.227006,0.140837 -0.331756,0.224136 -0.04225,0.0336 -0.08257,0.06958 -0.124469,0.103615 -0.09133,0.07487 -0.192056,0.139722 -0.274863,0.224625 -0.0314,0.03219 -0.05963,0.06734 -0.09055,0.09998 -0.05242,0.0508 -0.06533,0.113543 -0.08419,0.179727 -0.01117,0.03921 -0.03144,0.07775 -0.04854,0.11419 -0.126694,0.174679 -0.283719,0.321384 -0.439891,0.468635 -0.115855,0.09867 -0.232373,0.201907 -0.366609,0.274954 -0.237898,0.134303 0.06961,-0.03903 0.441903,-0.256622 0.02113,-0.01235 -0.04286,0.02366 -0.06456,0.03498 -0.06383,0.03329 -0.129049,0.0595 -0.196279,0.08496 -0.137676,0.04471 -0.272724,0.09655 -0.406827,0.150915 -0.220896,0.08935 -0.923532,0.305217 -0.749797,0.479866 0.01531,0.01539 0.03855,0.01999 0.05782,0.02999 0.376228,-0.06974 0.693158,-0.335818 0.980593,-0.579633 0.180276,-0.186279 0.344667,-0.386684 0.52143,-0.576142 0.08835,-0.116431 0.203546,-0.205711 0.307141,-0.306943 0.186109,-0.164492 0.472255,-0.314382 -0.428975,0.228825 -0.009,0.0054 0.01895,-0.01068 0.02942,-0.01102 0.0105,-3.43e-4 0.02013,0.006 0.03019,0.0091 0.02531,0.02646 0.03844,0.03261 0.04415,0.07299 0.01542,0.10913 -0.05682,0.250107 -0.10386,0.342605 -0.111297,0.159342 -0.227142,0.320241 -0.377972,0.444557 -0.190584,0.11993 -0.508784,0.314258 0.383138,-0.21927 0.01964,-0.01175 -0.04089,0.02064 -0.06184,0.02985 -0.05074,0.02232 -0.06623,0.02578 -0.118062,0.04226 -0.04902,0.01115 -0.09749,0.02423 -0.146091,0.03697 -0.01164,0.0031 -0.04342,0.0025 -0.0345,0.01062 0.0068,0.0061 0.01596,0.009 0.02395,0.01346 0.08769,-0.06511 0.159964,-0.150326 0.23186,-0.232189 0.09695,-0.09978 0.176989,-0.212984 0.258577,-0.325052 0.08859,-0.127995 0.173099,-0.227523 0.229814,-0.374468 0.01848,-0.03918 0.01912,-0.109265 0.05484,-0.140731 0.0049,-0.0043 0.02543,-0.0038 0.01958,-9.47e-4 -0.637079,0.315666 -0.508584,0.09442 -0.638808,0.339276 -0.09605,0.10842 -0.205638,0.202774 -0.317539,0.294151 -0.1549,0.118604 -0.317421,0.2255 -0.468245,0.349368 -0.235691,0.199628 -0.485615,0.383234 -0.69132,0.615026 -0.08967,0.103977 -0.128629,0.223584 -0.137548,0.35773 0.01827,0.106259 0.03332,0.209451 0.027,0.317313 -0.0078,0.03664 -0.01115,0.06575 -0.02942,0.09924 -0.05208,0.09549 -0.219226,0.189149 -0.306032,0.246438 -0.0459,0.0277 -0.184095,0.109934 -0.137688,0.0831 0.126842,-0.07334 0.256583,-0.142135 0.379005,-0.222639 0.06467,-0.04253 -0.136287,0.07344 -0.205329,0.108432 -0.217952,0.11045 -0.441265,0.210584 -0.662342,0.314542 -0.580801,0.275662 -1.141442,0.598936 -1.632601,1.015237 -0.104173,0.09562 -0.19351,0.205001 -0.259818,0.330121 -0.03995,0.07538 -0.06793,0.157191 -0.105473,0.233883 -0.07004,0.128473 -0.1905449,0.210408 -0.2996834,0.301944 -0.1860018,0.1669 -0.6006009,0.313229 0.4096804,-0.2192 0.0069,-0.0036 0.0062,0.01498 0.01238,0.01966 0.0047,0.0036 0.01173,0.0021 0.0176,0.0031 0.0066,-0.0056 0.01486,-0.0098 0.01988,-0.01685 0.01716,-0.0242 0.0264,-0.05332 0.04282,-0.07803 0.03559,-0.05355 0.07617,-0.100779 0.120988,-0.146619 0.08621,-0.08739 0.18521,-0.160867 0.28582,-0.230758 0.18924,-0.117977 0.517972,-0.308739 -0.359589,0.204722 -0.02892,0.01692 0.05861,-0.0325 0.08794,-0.0487 0.233514,-0.129021 -0.06346,0.03539 0.192984,-0.106661 0.03366,-0.01903 0.06761,-0.03756 0.100979,-0.0571 0.212192,-0.12425 0.425274,-0.247026 0.635691,-0.374259 0.09846,-0.05954 0.181519,-0.146225 0.270376,-0.218475 0.126386,-0.115442 0.238531,-0.245337 0.332301,-0.388402 0.07673,-0.12456 0.15561,-0.247655 0.257331,-0.353229 0.10497,-0.109989 0.224508,-0.204144 0.348972,-0.290895 0.139035,-0.100101 0.279346,-0.198226 0.421991,-0.293118 0.186114,-0.132763 0.342041,-0.29984 0.494761,-0.468397 0.108917,-0.118311 0.194132,-0.258123 0.269992,-0.399466 0.08064,-0.138145 0.161016,-0.276482 0.250265,-0.409287 0.07687,-0.08954 0.150899,-0.227006 0.251921,-0.287143 -0.175901,0.103609 -0.352146,0.206636 -0.527702,0.310828 -0.0055,0.0033 0.01142,-0.01022 0.01737,-0.008 0.02693,0.01029 0.03279,0.04783 0.04443,0.07421 0.03141,0.07123 0.03253,0.08286 0.05642,0.159479 0.03359,0.130854 0.07034,0.266514 0.03553,0.400424 -0.02025,0.08657 -0.0838,0.146847 -0.160162,0.18689 -0.06977,0.04978 -0.14705,0.08905 -0.213243,0.143769 -0.207214,0.134889 -0.0364,0.02289 0.496904,-0.287495 0.01033,-0.006 -0.02566,0.01569 -0.03494,0.0081 -0.01108,-0.009 -0.0044,-0.03769 -0.0038,-0.04499 0.01051,-0.112727 0.01302,-0.231414 0.06364,-0.334641 0.0076,-0.0047 0.0306,-0.01854 0.0229,-0.01399 -0.183514,0.108392 -0.364354,0.221424 -0.550338,0.32552 -0.0045,0.0025 -0.0081,-0.017 -0.0096,-0.01209 -0.0042,0.01308 1.5e-4,0.02749 1.85e-4,0.04124 6.1e-5,0.02364 0.0011,0.04729 1.01e-4,0.07091 -0.0013,0.03108 -0.0047,0.06205 -0.007,0.09307 -0.02443,0.281978 -0.113774,0.550274 -0.216786,0.811932 -0.02577,0.04865 -0.05531,0.11983 -0.101508,0.157204 -0.01473,0.01192 -0.06865,0.03171 -0.05247,0.02185 0.176015,-0.103858 0.35203,-0.207716 0.528044,-0.311574 -0.0067,-0.0025 -0.01544,-0.0021 -0.02001,-0.0076 -0.0092,-0.01096 -0.01237,-0.02575 -0.01856,-0.03862 -0.06311,-0.223308 -0.09812,-0.453055 -0.155382,-0.677824 -0.01098,-0.01935 -0.0182,-0.04139 -0.03294,-0.05805 -0.01233,-0.01393 -0.02921,-0.03902 -0.04616,-0.03136 -0.622465,0.281544 -0.540317,0.228072 -0.829981,0.581093 -0.217841,0.245395 -0.434752,0.492569 -0.661606,0.729859 0.126376,-0.05821 -0.260285,0.205597 -0.18725,0.165523 0.171569,-0.09414 0.6779,-0.3799 0.461717,-0.277119 -0.0013,5.95e-4 0.0034,-1.96e-4 0.0039,-0.0015 0.0051,-0.01537 0.0081,-0.03134 0.01207,-0.04701 0.04653,-0.114631 0.09113,-0.237606 0.167122,-0.337137 0.04217,-0.05524 0.07826,-0.07809 0.13177,-0.119794 0.279908,-0.161785 -0.264899,0.152888 -0.426502,0.251432 -0.01703,0.01039 0.03636,-0.0166 0.05528,-0.02294 0.04364,-0.01461 0.07764,-0.01843 0.120392,-0.0036 0.04862,0.147293 -0.06508,0.369522 -0.118076,0.507615 -0.06445,0.181058 -0.139863,0.360481 -0.263182,0.509569 -0.195176,0.166478 -0.06933,0.05514 0.479966,-0.277035 0.0047,-0.0028 -0.01029,0.0089 -0.01507,0.0063 -0.0084,-0.0046 -0.01353,-0.01447 -0.01659,-0.02357 -0.01705,-0.05075 -0.02491,-0.137674 -0.03117,-0.186135 -0.01041,-0.112572 -0.0171,-0.228128 -0.0022,-0.340815 0.0029,-0.02223 0.0075,-0.04442 0.01494,-0.06558 0.0039,-0.01118 0.02919,-0.03559 0.01862,-0.03026 -0.2026,0.102297 -0.399455,0.215598 -0.599183,0.323398 -0.0074,0.02231 -0.01221,0.04565 -0.02219,0.06693 -0.120601,0.257229 -0.337275,0.486046 -0.522362,0.698131 -0.09859,0.110586 -0.192591,0.225012 -0.288098,0.338178 -0.02171,0.02572 -0.04123,0.05377 -0.0666,0.07589 -0.01766,0.0154 -0.08097,0.04725 -0.06085,0.03523 0.172654,-0.103135 0.345636,-0.20572 0.518454,-0.30858 -0.07699,-0.07575 -0.06382,-0.390533 -0.04845,-0.494397 0.0056,-0.0194 0.0071,-0.04054 0.0169,-0.05819 0.0053,-0.0095 0.01743,-0.01282 0.02615,-0.01924 -0.184439,0.107778 -0.376703,0.203163 -0.553316,0.323336 -0.01293,0.0088 0.0078,0.03031 0.01111,0.04559 0.02998,0.136892 0.02167,0.09969 0.04313,0.249924 0.0045,0.0431 0.01046,0.08607 0.01343,0.129299 0.0023,0.03419 0.0043,0.06857 0.0025,0.102793 -9.88e-4,0.01859 -0.0025,0.03816 -0.01089,0.05477 -0.0029,0.0058 -0.02475,0.0077 -0.01906,0.0045 0.590513,-0.33226 0.614448,-0.101473 0.568124,-0.368069 -0.0066,-0.173354 -0.01029,-0.355273 0.04517,-0.522375 0.0098,-0.0294 0.0253,-0.05655 0.03795,-0.08482 0.015,-0.02167 0.02731,-0.04548 0.04501,-0.06501 0.01423,-0.01571 0.03318,-0.02638 0.04977,-0.03957 -0.171553,0.103069 -0.344477,0.20389 -0.51466,0.309206 -0.009,0.0055 0.01966,-0.0093 0.0302,-0.0094 0.03159,-3.39e-4 0.04091,0.01491 0.06308,0.03372 0.0845,0.13973 0.04918,0.300939 0.01246,0.449858 -0.06474,0.166611 -0.159292,0.337026 -0.296942,0.455961 -0.02698,0.02331 -0.05846,0.04085 -0.08769,0.06127 -0.297206,0.164817 0.123,-0.06709 0.371632,-0.223211 0.02369,-0.01488 -0.05139,0.0222 -0.07764,0.03186 -0.05862,0.02155 -0.11318,0.03273 -0.174912,0.03762 -0.09565,-0.01262 -0.177263,0.01265 -0.263233,0.05141 -0.08462,0.04128 -0.163435,0.09377 -0.257396,0.109555 -0.08761,0.0072 -0.146482,-0.05508 -0.200123,-0.115451 -0.04996,-0.0682 -0.096699,-0.138844 -0.1519021,-0.202982 C 9.8442218,15.342292 9.7686911,15.289225 9.6934906,15.237137 9.6024141,15.182014 9.5131745,15.123528 9.4285504,15.058882 9.3315464,14.991504 9.2340644,14.924964 9.140404,14.852837 9.0583225,14.776804 8.9707745,14.707703 8.8896521,14.630568 8.7911003,14.536632 8.6961138,14.439039 8.6004135,14.342221 8.5100383,14.250753 8.4192872,14.159658 8.3284641,14.068635 8.2317845,13.96896 8.1290182,13.875325 8.0352458,13.772907 7.9394613,13.681879 7.8489842,13.585679 7.7481507,13.500155 7.6519545,13.407131 7.5601265,13.310592 7.4608857,13.220662 7.3266697,13.106921 7.1981878,12.987161 7.0735863,12.863022 6.9392263,12.730093 6.7695426,12.644147 6.6082722,12.549391 6.4209931,12.437492 6.2210348,12.348975 6.0261821,12.251299 5.8645485,12.169404 5.7092033,12.079262 5.5640616,11.970896 5.4220782,11.868785 5.2880745,11.756439 5.1512891,11.647631 5.0218549,11.548423 4.9053965,11.434506 4.7926743,11.317069 4.650668,11.167039 4.5181612,11.008346 4.3895559,10.846787 4.3004235,10.722753 4.1896299,10.618049 4.0859961,10.506793 3.998467,10.412808 3.9132952,10.316391 3.8195162,10.228535 3.7472062,10.152867 3.6712802,10.081892 3.5911138,10.01468 3.5131033,9.9460849 3.4437797,9.8688938 3.3669217,9.7987979 3.2837536,9.725824 3.2152834,9.6380869 3.1478715,9.5508599 3.0659204,9.4350347 2.9785739,9.3230248 2.9007532,9.2043426 2.8392328,9.1094308 2.764877,9.0230275 2.70876,8.9248252 2.6395268,8.8014293 2.5789737,8.6740892 2.5067521,8.5523092 2.4188421,8.4080144 2.3465227,8.2549783 2.2608812,8.1093284 2.1890401,7.9748317 2.1054535,7.8479141 2.0191365,7.7224797 1.9098915,7.5654875 1.8105423,7.40241 1.7208244,7.2335857 1.6416519,7.0972745 1.586696,6.9490956 1.5387624,6.7994666 1.4798477,6.652829 1.4629372,6.4967814 1.4389125,6.3422094 1.4173892,6.1607805 1.3869949,5.9806413 1.3680523,5.798889 1.3420936,5.6594748 1.3224033,5.519606 1.3125894,5.3781476 1.3060096,5.2554082 1.3057923,5.1324642 1.3062109,5.0095885 1.3041878,4.9136031 1.3050812,4.819659 1.3224819,4.725301 1.3532485,4.6232133 1.4061884,4.5316735 1.4557873,4.4382407 1.5082105,4.3469392 1.5608144,4.2553264 1.6063179,4.1603168 1.65723,4.06055 1.7089384,3.9607532 1.7509456,3.8567981 1.8070708,3.7091775 1.8780005,3.5676931 1.935229,3.4206729 1.9889141,3.2893718 2.0282127,3.1526083 2.0626259,3.0152038 2.0919751,2.9109651 2.1109948,2.8031508 2.1424082,2.6995629 2.1681247,2.59305 2.2009278,2.4885595 2.2427887,2.3872634 2.2936612,2.28166 2.36394,2.1875161 2.4255621,2.0883853 2.4736828,2.0010655 2.5514462,1.9384671 2.615688,1.8646352 c 0.0097,-0.00791 0.018646,-0.016842 0.02909,-0.023739 0.070832,-0.036678 -0.00549,0.00574 0.058671,-0.038896 0.00911,-0.00633 0.038538,-0.021992 0.028951,-0.016411 -0.5387274,0.31359 -0.7270994,0.3846555 -0.5139274,0.302809 0.059677,0.010558 0.08092,0.2580309 0.086947,0.3100068 0.014537,0.147901 0.013653,0.2966248 0.014035,0.4450512 -0.00108,0.1268023 -9.575e-4,0.2536079 -0.00142,0.3804125 -0.010282,0.051199 -0.00386,0.1101827 -0.030391,0.1575061 -0.00569,0.010155 -0.034005,0.031316 -0.02399,0.025381 C 2.7982325,3.0899508 2.8715646,2.8811269 2.7942671,3.0919381 2.7275517,2.9875147 2.6970184,2.8615582 2.6496387,2.7468346 2.5996492,2.6137727 2.5559197,2.4785099 2.5075903,2.3447981 2.3639955,2.0027403 2.2503761,2.245969 1.842195,2.57352 1.823854,2.588238 1.845285,2.620451 1.846825,2.643917 1.855785,2.8480905 1.884513,3.0504933 1.9016,3.2540431 1.91116,3.3275851 1.9017146,3.41122 1.935767,3.4802687 1.941707,3.4923167 1.948918,3.5175377 1.961009,3.5116847 2.5720612,3.2159071 2.5186195,3.3972183 2.5746246,3.1084483 2.6137946,2.9511262 2.6316256,2.7892231 2.6676966,2.6313375 2.6915966,2.526727 2.7123356,2.4700324 2.7451236,2.3685815 2.8152776,2.1609235 2.8924938,1.9541291 3.0171205,1.772743 3.0614735,1.720516 3.1091275,1.6711365 3.1659086,1.632249 3.1834346,1.620246 3.2388136,1.588611 3.2204926,1.599361 2.6982903,1.9057379 2.5430717,1.9630596 2.7836712,1.8684446 2.8953835,1.8334136 3.0125348,1.8284453 3.1286103,1.8252573 3.480246,1.7841923 3.8463214,1.5562426 4.0991628,1.3453649 c 0.011126,-0.012346 0.069806,-0.079207 0.086729,-0.091858 0.010274,-0.00768 0.046197,-0.022235 0.035056,-0.015876 -0.184069,0.1050642 -0.3682287,0.2100056 -0.553978,0.3120697 -0.00369,0.00203 -0.010511,-0.00439 -0.012615,-7.424e-4 -0.00752,0.013036 -0.00803,0.029006 -0.012051,0.043509 C 3.5752624,1.7657583 3.4746586,1.9230963 3.4009285,2.0937945 3.204597,2.5054052 4.0009722,1.8900663 4.0061004,1.8868342 c 0.024455,-0.015413 0.034117,-0.046674 0.051071,-0.070088 0.022284,-0.030775 0.044428,-0.061651 0.066642,-0.092477 C 4.284929,1.4767812 4.495392,1.2700893 4.7271425,1.0894735 4.8345865,1.0179125 5.5130471,0.56849061 4.354832,1.3025674 c -0.019069,0.012086 0.042155,-0.017086 0.064387,-0.021007 0.06096,-0.010752 0.089798,0.021466 0.1248174,0.063985 0.029745,0.049803 0.044092,0.1083447 0.079907,0.1547457 0.1459101,0.1890366 0.4383695,-0.19428 0.6392285,-0.323432 0.018959,-0.051708 0.024678,-0.1070731 0.038852,-0.1599106 0.059244,-0.22085327 0.5665686,-0.40114653 -0.4926716,0.2487779 0.00606,-1.964e-4 0.013523,-0.00446 0.01819,-5.892e-4 0.074919,0.062213 0.1460798,0.2722361 0.1763974,0.3652419 0.1469007,0.4310876 0.002,0.3058817 0.6780456,-0.082375 0.014508,-0.3760459 0.06365,-0.2201094 -0.5719184,0.1361937 0.0916,0.2205663 0.1945682,0.4364075 0.2945918,0.6533805 0.1012639,0.205936 0.18342,0.4176989 0.2545003,0.6353976 0.034802,0.1313056 0.079347,0.2595656 0.117676,0.3898106 0.00944,0.031073 0.01887,0.062146 0.028305,0.093219 0,0 0.5645291,-0.3083706 0.5645291,-0.3083706 v 0 C 6.3607535,3.1165661 6.3518372,3.0854988 6.3429209,3.0544315 6.3070488,2.9221295 6.2706267,2.7899261 6.2256692,2.6603737 6.1479078,2.4435222 6.0557705,2.2343787 5.9525166,2.0283217 5.8555081,1.8117362 5.7520316,1.5955235 5.6881692,1.3663656 4.8631487,1.7788535 5.1704409,1.4509222 5.0886602,1.8296633 6.1410078,1.3147375 5.7346896,1.7438382 5.6389505,1.5151271 5.6121137,1.4510166 5.5945893,1.3834925 5.5690985,1.3188764 5.5127609,1.1568596 5.4515884,0.98473796 5.3279686,0.86152478 4.8794233,1.1265739 4.7891755,1.0114014 4.71514,1.2996886 4.7021447,1.3502914 4.6907992,1.4016397 4.6661839,1.4482988 4.8474448,1.3464228 5.0248474,1.2373554 5.2099664,1.1426709 c 0.00885,-0.00453 0.00202,0.021674 -0.00404,0.029561 -0.011921,0.015521 -0.034375,-0.02186 -0.043952,-0.038927 C 5.1400756,1.0942781 5.126362,1.0509923 5.1024913,1.0129495 5.0683752,0.96690293 5.0544153,0.93677778 5.0016786,0.90942771 4.9633705,0.88956057 4.8980173,0.8779793 4.857392,0.89925571 4.3495314,1.1652341 4.3983992,1.134549 4.1370683,1.3265811 3.909358,1.5170955 3.704189,1.7312432 3.5365127,1.9773084 c -0.024163,0.030916 -0.047563,0.062444 -0.072489,0.092749 -0.01925,0.023403 -0.08788,0.080147 -0.059985,0.06831 C 3.5897205,2.0595784 3.7585956,1.9444747 3.9444885,1.866185 3.9989435,1.843251 3.9190995,1.9921549 3.9882615,1.824391 4.0652555,1.6501626 4.1715849,1.4888784 4.2278122,1.306264 4.2298922,1.284354 4.2370022,1.262341 4.2340422,1.240533 4.1893596,0.91155154 3.6669081,1.4275779 3.4957838,1.5858956 3.2912134,1.7278344 3.3815929,1.6627529 3.93822,1.3415003 c 0.022525,-0.013 -0.04583,0.024691 -0.069534,0.035393 -0.060862,0.02748 -0.086613,0.034439 -0.1510917,0.050631 -0.020645,0.00518 -0.041551,0.00927 -0.062326,0.01391 C 3.535278,1.4416734 3.4146576,1.4453896 3.2968925,1.4707475 3.00436,1.5443238 3.2214875,1.483394 2.6154305,1.8367279 2.5365567,1.8827116 2.4787613,1.9609245 2.4258005,2.0326748 2.3123526,2.2218446 2.2396598,2.4312053 2.170434,2.6398766 2.096783,2.8856057 2.0581656,3.1385401 1.9862271,3.3845883 1.8621487,3.621064 1.9423378,3.4434869 2.5168194,3.1584419 c 0.00347,-0.00172 -0.00746,0.00947 -0.00975,0.00634 -0.00877,-0.01194 -0.012581,-0.027044 -0.016028,-0.041451 -0.00577,-0.024132 -0.00849,-0.048917 -0.01149,-0.073549 -0.00374,-0.030705 -0.00581,-0.06159 -0.00871,-0.092385 C 2.450655,2.7556199 2.4230738,2.55366 2.4268059,2.3504801 c 0.00276,-0.019144 0.025741,-0.065739 0.00827,-0.057433 -0.1889828,0.089859 -0.3568057,0.2199302 -0.5445194,0.312411 -0.012199,0.00601 -0.010933,-0.026444 -0.0087,-0.039858 0.00168,-0.010086 0.015197,0.00412 0.03468,0.043968 0.00815,0.016671 0.014732,0.034065 0.022098,0.051098 0.050838,0.1332357 0.095352,0.2686602 0.146921,0.4015604 0.052088,0.1304449 0.083877,0.2708612 0.1588826,0.3903832 0.3731837,0.3392314 0.6544615,-0.245917 0.6530405,-0.523835 5.16e-5,-0.1267025 0.00123,-0.2534061 -1.419e-4,-0.3801065 C 2.8963107,2.3980679 2.8942423,2.2470743 2.878714,2.0971617 2.8605645,1.9641626 2.8519754,1.8027806 2.751595,1.703959 2.5320218,1.6417729 2.2076176,1.9376227 2.011974,2.1177317 1.942929,2.1888774 1.8797,2.2653465 1.8289606,2.3508435 1.7638449,2.4502084 1.6985655,2.5505889 1.6527846,2.6606814 1.6139636,2.7655707 1.578828,2.8715836 1.5529509,2.9804879 1.5275299,3.0855999 1.5017339,3.1905598 1.4757089,3.2955319 1.4389389,3.4295207 1.4049499,3.5646471 1.3479323,3.6919549 1.2864443,3.8375806 1.2228138,3.9823073 1.1607524,4.1277038 1.1135304,4.2294683 1.0628324,4.3296184 1.0115373,4.4293838 0.962993,4.5221438 0.912757,4.613986 0.86142827,4.705235 0.80902617,4.802824 0.75854158,4.9035067 0.73529967,5.0125835 c -0.0140168,0.097267 -0.0105625,0.1949453 -0.009609,0.2930132 0.001162,0.1238495 0.001945,0.2478128 0.010819,0.3714073 0.0109358,0.1418163 0.0327622,0.2817888 0.0597687,0.4213997 0.0222988,0.1819201 0.0509804,0.3629367 0.0718826,0.5450314 0.02133,0.1590413 0.0445382,0.3172819 0.10348094,0.4678233 0.0503643,0.1527252 0.10638759,0.3047531 0.18922259,0.4433151 0.092119,0.1699183 0.1954364,0.3331767 0.3032532,0.4935183 0.083214,0.1260135 0.1601786,0.2555271 0.2365267,0.3857979 0.087629,0.1443735 0.1607071,0.2967174 0.2465109,0.4420786 0.070992,0.1219466 0.1281636,0.2508036 0.1980395,0.3733585 0.055674,0.1005755 0.1282874,0.1900037 0.1956709,0.2829364 0.079887,0.1189898 0.1670734,0.2327622 0.2481976,0.3509016 0.068691,0.090908 0.1374435,0.1830652 0.2231567,0.2589612 0.077321,0.07094 0.1490469,0.146665 0.2256066,0.21812 0.079354,0.06723 0.1567625,0.135467 0.2283745,0.211099 0.095461,0.08355 0.1775163,0.181022 0.2649326,0.272732 0.1028342,0.110606 0.2158251,0.211392 0.3069003,0.332632 0.1315733,0.161114 0.264544,0.321325 0.4034384,0.476165 0.1133566,0.120727 0.2309823,0.237958 0.3626489,0.338944 0.1380185,0.108118 0.2726477,0.220672 0.4152387,0.322815 0.1459952,0.114714 0.3041833,0.207278 0.4707682,0.289528 0.1942474,0.09589 0.3927922,0.184142 0.5795153,0.294307 0.156098,0.09243 0.3202533,0.176834 0.4528632,0.302697 0.1261987,0.123768 0.2561867,0.242835 0.3883501,0.360059 0.099076,0.09088 0.1902639,0.188915 0.2848966,0.284301 0.1003583,0.08242 0.1907546,0.174977 0.2864133,0.262749 0.093684,0.103498 0.1930495,0.201517 0.2919,0.300054 0.090922,0.09092 0.1818517,0.18184 0.2726223,0.272915 0.096295,0.0967 0.1924937,0.193507 0.288054,0.290939 0.082164,0.0796 0.1714164,0.14988 0.2556403,0.227093 0.092583,0.07308 0.1878076,0.142519 0.2865629,0.206966 0.084339,0.06734 0.1742066,0.127158 0.2665681,0.182824 0.072168,0.04673 0.1420645,0.09876 0.2026371,0.159922 0.05794,0.06118 0.1035512,0.133053 0.153795,0.200456 0.063065,0.0744 0.1327947,0.149561 0.2333621,0.167131 0.025999,-2.56e-4 0.069775,7.03e-4 0.095252,-0.0053 0.064867,-0.01517 0.1172576,-0.06072 0.1782125,-0.08488 0.07677,-0.04367 0.154623,-0.0907 0.246099,-0.07478 0.09232,0.002 0.193104,-0.0086 0.276309,-0.05325 0.528422,-0.283577 0.453989,-0.237821 0.726537,-0.415699 0.02822,-0.02422 0.05831,-0.04642 0.08466,-0.07266 0.133838,-0.133318 0.224607,-0.308648 0.284144,-0.485582 0.03721,-0.173989 0.06082,-0.352011 -0.03514,-0.512387 -0.01356,-0.01486 -0.02528,-0.03163 -0.04068,-0.04458 -0.228813,-0.19235 -0.655091,0.173444 -0.773227,0.427762 -0.06917,0.206338 -0.08401,0.424627 -0.07402,0.641352 0.04538,0.283071 -0.0059,0.105802 0.609004,-0.204683 0.0082,-0.0041 -1.85e-4,-0.01837 -3.92e-4,-0.02756 -0.0016,-0.07237 -0.0013,-0.07591 -0.01055,-0.162027 -0.0046,-0.04317 -0.01063,-0.08618 -0.01594,-0.129262 -0.0028,-0.02307 -0.041,-0.380611 -0.07098,-0.370789 -0.475983,0.155931 -0.572579,0.124227 -0.612178,0.411752 -0.0083,0.141111 -0.0088,0.404323 0.05219,0.530842 0.01269,0.0263 0.03476,0.04694 0.05214,0.07041 0.202223,-0.108261 0.407042,-0.211806 0.606668,-0.324783 0.0311,-0.0176 0.09538,-0.10238 0.11123,-0.121888 0.0908,-0.111765 0.182922,-0.222356 0.27692,-0.331473 0.191919,-0.226086 0.408877,-0.456998 0.532476,-0.730317 0.01115,-0.02465 0.01641,-0.05156 0.02462,-0.07734 -0.194464,0.07977 -0.393285,0.149654 -0.583392,0.239314 -0.01204,0.0057 -0.0056,0.02605 -0.0073,0.03925 -0.01744,0.138488 -0.0045,0.279424 0.0035,0.418015 0.006,0.05574 0.01394,0.162224 0.03324,0.218111 0.102642,0.297182 0.575025,-0.110338 0.711568,-0.291334 0.109493,-0.160612 0.182869,-0.340038 0.248087,-0.522542 0.05711,-0.150392 0.156731,-0.357875 0.118473,-0.522706 -0.0059,-0.02563 -0.02136,-0.04809 -0.03204,-0.07213 -0.01495,-0.01067 -0.02805,-0.02461 -0.04486,-0.03201 -0.04793,-0.02112 -0.127022,-0.01422 -0.172175,0.0103 -0.560068,0.304179 -0.435728,0.215537 -0.678684,0.396466 -0.140958,0.137284 -0.232231,0.31384 -0.282554,0.503778 1.5e-4,0.02729 -0.0065,0.05547 4.5e-4,0.08186 0.007,0.02649 0.03906,0.09873 0.0881,0.07245 0.349372,-0.187141 0.551164,-0.276231 0.782805,-0.526466 0.22473,-0.244229 0.450833,-0.487603 0.669477,-0.737172 0.03348,-0.03947 0.111751,-0.133798 0.150443,-0.171697 0.02139,-0.02096 0.09563,-0.07078 0.06847,-0.05816 -0.176389,0.08194 -0.34577,0.178198 -0.518655,0.267296 0.0085,-0.0029 0.01759,-0.01284 0.02554,-0.0087 0.01407,0.0074 0.0196,0.02504 0.02939,0.03757 0.07054,0.225979 0.101409,0.460475 0.15464,0.69065 0.01027,0.02181 0.01716,0.04554 0.03079,0.06542 0.157817,0.230108 0.544853,-0.208161 0.652884,-0.267074 0.01661,-0.0091 0.02793,-0.02586 0.03909,-0.04114 0.04051,-0.05541 0.05681,-0.103833 0.08483,-0.167633 0.09701,-0.269979 0.185422,-0.544529 0.215947,-0.83123 0.0065,-0.07253 0.02608,-0.172241 0.0018,-0.244632 -0.09245,-0.27571 -0.554612,0.06781 -0.625943,0.302658 -0.03323,0.117422 -0.04802,0.239006 -0.0524,0.360837 0.06325,0.389967 0.560027,-0.09668 0.731011,-0.218431 0.07163,-0.04668 0.14378,-0.09254 0.213977,-0.141342 0.07321,-0.06236 0.124888,-0.13663 0.138309,-0.233992 0.0167,-0.144445 -0.01895,-0.285208 -0.05728,-0.423954 -0.153226,-0.509801 -0.151976,-0.337884 -0.762057,0.01591 -0.08984,0.09244 -0.164163,0.199925 -0.239084,0.304408 -0.08621,0.135258 -0.166197,0.274169 -0.247147,0.412605 -0.08006,0.135482 -0.162734,0.270919 -0.272551,0.38486 -0.152064,0.167471 -0.311481,0.329633 -0.501875,0.45421 -0.142609,0.09542 -0.282121,0.195251 -0.421508,0.295303 -0.124425,0.09194 -0.245093,0.189576 -0.348447,0.30535 -0.09582,0.111312 -0.169268,0.238857 -0.251146,0.360428 -0.09753,0.137249 -0.209947,0.263444 -0.339313,0.371716 -0.0631,0.05338 -0.125372,0.10774 -0.192275,0.156404 -0.02501,0.01819 -0.103377,0.06771 -0.07619,0.05296 0.135046,-0.07324 0.690453,-0.394165 0.359101,-0.202895 -0.345743,0.18875 -0.696523,0.371528 -1.023811,0.591119 -0.099372,0.07396 -0.1980403,0.149498 -0.2799469,0.243286 -0.069908,0.08366 -0.142098,0.174132 -0.1760645,0.278842 0.00321,0.01692 0.00249,0.03509 0.00962,0.05076 0.114464,0.251683 0.5510854,-0.240046 0.7444934,-0.386508 0.112786,-0.0932 0.224153,-0.19096 0.286082,-0.326999 0.03347,-0.07445 0.06149,-0.153206 0.101911,-0.22429 0.06611,-0.116278 0.154137,-0.216561 0.253632,-0.305496 0.156506,-0.129983 0.140391,-0.121155 0.314614,-0.245586 0.06221,-0.04443 0.260156,-0.157438 0.188627,-0.130456 -0.119184,0.04496 -0.22428,0.120956 -0.33418,0.185362 -0.130512,0.07649 0.527529,-0.290998 0.4035,-0.2077 0.578775,-0.274448 1.164701,-0.535281 1.697161,-0.897623 0.162666,-0.113002 0.313084,-0.194086 0.327079,-0.40776 0.0024,-0.106532 -0.01548,-0.209586 -0.02371,-0.315316 0.014,-0.120311 0.06126,-0.223728 0.143363,-0.314522 0.207793,-0.226084 0.454176,-0.410296 0.691568,-0.603721 0.157149,-0.120822 0.322987,-0.229664 0.477201,-0.354416 0.113801,-0.09578 0.23168,-0.194615 0.312133,-0.321103 0.112405,-0.237113 0.05246,-0.08167 -0.565785,0.179974 -0.0072,0.003 -0.0033,0.01528 -0.0057,0.02271 -0.0093,0.02887 -0.02006,0.05726 -0.02988,0.08596 -0.0062,0.01818 -0.01272,0.03627 -0.01908,0.05441 -0.06035,0.131199 -0.152761,0.242008 -0.234661,0.360163 -0.08134,0.111299 -0.167024,0.218893 -0.261623,0.319373 -0.04426,0.0487 -0.04706,0.05291 -0.09342,0.09942 -0.03846,0.03859 -0.08905,0.07799 -0.1172,0.125823 -0.0075,0.01272 -0.01082,0.02747 -0.01623,0.0412 0.0048,0.01859 0.0055,0.03882 0.01449,0.05577 0.04187,0.07861 0.160679,-0.0054 0.219887,-0.0061 0.337332,-0.08459 0.637328,-0.283802 0.911663,-0.49388 0.141223,-0.136499 0.260166,-0.296432 0.360528,-0.464878 0.07141,-0.159888 0.159095,-0.356535 0.0259,-0.50772 -0.01535,-0.01131 -0.02918,-0.02506 -0.04606,-0.03393 -0.261557,-0.137588 -0.531243,0.240369 -0.736221,0.412376 -0.102849,0.09703 -0.20483,0.194552 -0.293226,0.30554 -0.173393,0.191755 -0.336025,0.394202 -0.52694,0.569277 -0.05961,0.04904 -0.0996,0.08327 -0.161517,0.129026 -0.02199,0.01626 -0.09136,0.05996 -0.06734,0.04689 0.885481,-0.482163 0.5739,-0.316114 0.374853,-0.22 -0.02016,0.034 -0.02047,0.01769 -0.0074,0.04838 -0.179137,0.102835 -0.358274,0.205671 -0.53741,0.308507 -0.01684,0.0097 0.03359,-0.01962 0.05108,-0.0281 0.06231,-0.03022 0.07843,-0.03321 0.145417,-0.05583 0.134817,-0.05049 0.26591,-0.111921 0.405082,-0.150285 0.04499,-0.01713 0.09117,-0.0311 0.135926,-0.04883 0.03304,-0.01308 0.09919,-0.04596 0.130012,-0.06348 0.50802,-0.288874 0.423092,-0.238797 0.669693,-0.38529 0.125882,-0.08499 0.244597,-0.180054 0.354541,-0.284972 0.158432,-0.151578 0.31939,-0.305976 0.435203,-0.49381 0.04203,-0.0964 0.06407,-0.200547 0.143476,-0.275495 0.109377,-0.119172 0.236253,-0.217303 0.365014,-0.314781 0.14383,-0.116884 0.298899,-0.216156 0.451015,-0.321785 0.152479,-0.11283 0.300137,-0.231885 0.371894,-0.4137812 0.04024,-0.1212706 0.09352,-0.2634907 0.02813,-0.3842777 -0.02595,-0.033233 -0.037,-0.056263 -0.07654,-0.074287 -0.01253,-0.00571 -0.0282,-0.014139 -0.04052,-0.008 -0.225527,0.1124448 -0.470158,0.224712 -0.675702,0.3811116 -0.08248,0.059593 -0.163434,0.1215683 -0.238274,0.1906413 -0.09758,0.09914 -0.183811,0.209021 -0.276784,0.312401 -0.113399,0.137018 -0.229357,0.272079 -0.334941,0.415353 -0.08219,0.104367 -0.172522,0.209214 -0.221279,0.334034 -0.01628,0.08824 -0.01168,0.225991 0.105256,0.232173 0.553284,-0.329046 0.522887,-0.217274 0.741944,-0.576875 0.08335,-0.130583 0.166688,-0.261668 0.264081,-0.382418 0.09847,-0.11472 0.211899,-0.211293 0.342281,-0.288802 0.139577,-0.08516 0.280732,-0.1673302 0.412036,-0.2652512 0.10308,-0.071795 0.20362,-0.1472892 0.305764,-0.2203711 0.08526,-0.069106 0.156703,-0.1510589 0.234257,-0.228379 0.07752,-0.075891 0.157548,-0.1502537 0.223958,-0.2363805 0.06546,-0.095323 0.1276,-0.1926028 0.177574,-0.2971544 0.07165,-0.1310383 0.14294,-0.2625622 0.225424,-0.3872217 0.06902,-0.1133555 0.141651,-0.2246044 0.205322,-0.3411265 0.06583,-0.1236156 0.132783,-0.2470172 0.187988,-0.3758452 0.04984,-0.1183559 0.107975,-0.2338597 0.141089,-0.358494 0.03995,-0.1487731 0.06005,-0.3013021 0.09502,-0.4512363 0.04079,-0.1943713 0.07564,-0.3907076 0.09252,-0.5887183 0.01349,-0.1792452 0.01512,-0.3593126 0.03527,-0.5381251 0.01244,-0.1381457 0.01694,-0.2761509 0.01251,-0.4148543 -4.36e-4,-0.1449711 -3.72e-4,-0.2899461 -4.45e-4,-0.4349168 4.96e-4,-0.1389895 -2.68e-4,-0.2779999 0.0025,-0.4169679 0.0011,-0.092783 9.95e-4,-0.1855767 0.0011,-0.2783654 -4.6e-4,-0.1020601 -6.2e-4,-0.204615 -0.0135,-0.3061378 C 18.996694,3.8866237 18.958456,3.7866666 18.90166,3.693352 18.833773,3.5625126 18.761906,3.4336313 18.688234,3.3059941 18.611629,3.1962987 18.53116,3.0910168 18.440991,2.9918094 18.365036,2.9018381 18.287876,2.812948 18.213796,2.7215546 18.138924,2.6340646 18.062395,2.5488444 17.983659,2.4648808 17.889637,2.3677417 17.796041,2.2699222 17.710431,2.1651729 17.643293,2.0836724 17.573662,2.0035122 17.487233,1.9415942 17.366285,1.8568611 17.257292,1.7570139 17.14156,1.6654983 17.066099,1.6044432 16.988198,1.5468051 16.911162,1.4880351 16.809551,1.4405985 16.705353,1.402923 16.596466,1.3749413 16.485388,1.338809 16.372428,1.3084222 16.26076,1.2741067 c -0.107099,-0.03396 -0.214844,-0.066588 -0.325005,-0.089363 -0.155153,-0.037991 -0.30852,-0.082872 -0.465113,-0.1149701 -0.106734,-0.013541 -0.211913,-0.032551 -0.320065,-0.029912 -0.0999,-0.00742 -0.198683,-0.022353 -0.297688,-0.037287 -0.111104,2.539e-4 -0.222335,6.327e-4 -0.333282,-0.00607 C 14.391632,0.9855922 14.265186,0.9633956 14.141955,0.926476 14.030076,0.8939729 13.914057,0.8684238 13.797185,0.8676217 c -0.12252,2.189e-5 -0.245194,-3.2117e-4 -0.367535,0.007029 -0.301217,0.0331209 -0.611514,0.209993 -0.769694,0.4689563 -0.03942,0.08827 -0.07349,0.1790962 -0.09374,0.2738775 -0.01747,0.093295 -0.03267,0.1873467 -0.0846,0.2692702 -0.0089,0.014062 -0.01671,0.028889 -0.02672,0.042187 -0.0086,0.011386 -0.0414,0.038273 -0.02882,0.031582 0.179197,-0.095292 0.353803,-0.1989796 0.530704,-0.2984694 -0.02053,0.019537 -0.02572,0.031897 -0.05718,0.032028 -0.013,5.39e-5 -0.02538,-0.00566 -0.03808,-0.00849 -0.102407,-0.077545 -0.149053,-0.2087842 -0.158967,-0.3337799 0.0072,-0.041912 0.0029,-0.054186 0.03162,-0.086531 0.01034,-0.011656 0.0499,-0.036967 0.03618,-0.029593 -0.960365,0.5159879 -0.624462,0.2931206 -0.40039,0.2559085 0.164344,-0.00194 0.324645,0.04242 0.488649,0.049442 0.02913,0.00249 0.116047,0.011707 0.149254,0.0084 0.01034,-0.00103 0.02115,-0.00438 0.02916,-0.010991 0.003,-0.00245 0.0011,-0.013477 -0.0021,-0.011348 -0.02203,0.014628 -0.01811,0.056066 -0.05129,0.060518 -0.15172,0.1312465 -0.319901,0.2433619 -0.485079,0.3566469 0.933638,-0.5341251 0.353349,-0.1710485 0.09831,-0.1178227 -0.160238,0.055341 -0.329283,0.084806 -0.478629,0.1695202 -0.402275,0.1991018 -0.7842,0.4374429 -1.152649,0.6930458 -0.123838,0.094959 -0.284439,0.2059824 -0.298347,0.3755789 0.529317,-0.232994 0.619231,-0.1086894 0.659589,-0.5216469 -0.0024,-0.089442 -0.01032,-0.1830761 -0.04229,-0.2677527 -0.008,-0.021192 -0.0078,-0.068761 -0.02923,-0.061351 -0.210786,0.072967 -0.40469,0.1877365 -0.607036,0.2816047 -0.0893,0.113994 -0.08688,0.2613441 -0.05555,0.3970482 0.04147,0.1312029 0.09874,0.2957609 0.247598,0.3418721 0.02195,0.0068 0.04583,0.00335 0.06875,0.00502 0.39328,-0.022695 0.617502,-0.1129072 0.977733,-0.4188945 0.112249,-0.1261666 0.142815,-0.2793318 0.110043,-0.4452655 -0.03541,-0.1166099 -0.0724,-0.2731439 -0.183829,-0.3430125 -0.01696,-0.010636 -0.03781,-0.030812 -0.05584,-0.022119 -0.207464,0.099999 -0.401292,0.2261162 -0.601937,0.3391742 -0.05552,0.058879 -0.09401,0.1286993 -0.12097,0.2049707 -0.117197,0.2730718 -0.398423,0.3174927 0.422136,-0.1428316 -0.09993,0.05932 -0.208648,0.05353 -0.321815,0.051014 -0.0016,-7.6e-6 -0.08692,-4.575e-4 -0.0871,-3.365e-4 -0.812935,0.5492285 -0.729119,0.4095533 -0.459228,0.3761218 0.109629,-0.031291 0.224557,-0.04127 0.3382,-0.043938 0.120238,-0.010533 0.235826,-0.04099 0.344566,-0.094578 0.318547,-0.1284304 0.657593,-0.3137448 0.901583,-0.568355 0.08513,-0.1131098 0.158475,-0.2375449 0.205627,-0.3713738 4.51e-4,-0.020497 0.0055,-0.041415 0.0014,-0.061492 -0.01742,-0.084179 -0.09658,-0.078483 -0.155962,-0.045225 -0.206245,0.1155227 -0.409497,0.2363097 -0.614246,0.3544646 -0.222012,0.1357689 -0.09196,0.055463 0.432973,-0.2463526 0.02182,-0.012545 -0.04377,0.024856 -0.06561,0.037371 -0.207853,0.1191197 -0.415759,0.2381461 -0.623459,0.3575317 -0.025,0.014372 -0.09967,0.058077 -0.07465,0.04374 0.158991,-0.09109 0.317702,-0.1826666 0.476553,-0.2740001 -0.330608,0.1812022 -0.677592,0.3456137 -0.96666,0.5905684 -0.100048,0.10131 -0.189339,0.2130611 -0.24701,0.3444794 -0.06097,0.1529434 -0.102606,0.3114373 -0.135255,0.4727388 0,0 0.588088,-0.2892094 0.588088,-0.2892094 z"
     id="path947"
     style="fill:#ff6767;fill-opacity:1;stroke:none;stroke-width:0.032;stroke-linecap:round;stroke-linejoin:bevel;stroke-miterlimit:4;stroke-dasharray:none;stroke-opacity:1" />
  <path
     d="M 2.4213957,3.0907632 C 2.548594,2.9036206 2.696488,2.7318426 2.843372,2.5601323 3.001102,2.3801859 3.160382,2.2012796 3.3057556,2.0110681 c 0.00734,-0.012871 0.046405,-0.055351 4.526e-4,-0.067382 -0.046582,-0.012196 -0.1701941,0.053587 -0.185457,0.060658 -0.1720785,0.079713 -0.1855363,0.09124 -0.3574253,0.185953 C 2.5359353,2.3264247 2.361991,2.415678 2.1648838,2.5671598 2.0042408,2.6906178 1.8511869,2.8312962 1.7162298,2.9825381 1.6791411,3.0241021 1.6456479,3.06874 1.6103569,3.1118409 1.5649341,3.1768491 1.5113292,3.250402 1.4703895,3.3195405 c -0.010143,0.017129 -0.030401,0.033718 -0.026905,0.053316 0.00302,0.016935 0.024683,0.031821 0.041814,0.03025 0.034023,-0.00312 0.063552,-0.025672 0.093211,-0.042634 C 1.710946,3.2847341 1.8402621,3.2036656 1.9711384,3.1252623 2.3575161,2.8754602 2.7221978,2.5925192 3.0788536,2.3022084 2.9450651,2.3679207 3.3243183,2.1287932 3.2579367,2.164392 3.1772731,2.20765 3.101238,2.2590776 3.0216348,2.3042572 c -0.01175,0.00667 -0.028651,0.00525 -0.037448,0.015504 -0.029813,0.034749 -0.047846,0.078187 -0.074731,0.115248 C 2.8613344,2.5013449 2.8093775,2.564812 2.7593382,2.6297133 2.5116746,2.938831 2.2531797,3.2390531 2.0036305,3.5466194 1.6034186,4.0398756 2.0736123,3.466864 1.7275797,3.8875016 c -0.033242,0.029397 -0.1395062,0.1078532 -0.099725,0.08819 0.074441,-0.036796 0.1466686,-0.082131 0.2056728,-0.1405588 0.015264,-0.015115 -0.00185,-0.043185 0.00134,-0.064429 0.00754,-0.050327 0.016189,-0.1007731 0.030714,-0.1495448 0.0544,-0.1826548 0.099562,-0.2560725 0.1845312,-0.4309138 C 2.2423465,2.8264405 2.4934682,2.5002755 2.7584205,2.1874173 2.6249811,2.2308743 2.9226155,2.052445 2.877139,2.080261 2.786972,2.135412 2.685638,2.175671 2.6069831,2.2462769 c -0.022559,0.02025 -0.00616,0.060669 -0.014756,0.089738 C 2.5389329,2.5161874 2.4818257,2.6243458 2.4023326,2.8015319 2.1436404,3.3516485 1.8338154,3.8756205 1.5039048,4.3855359 1.6791109,4.3324446 1.2227582,4.6520949 1.3210192,4.6278761 1.9751827,4.4666419 1.5044133,4.581433 1.5261574,4.4735961 1.5362439,4.4235732 1.5492636,4.3739768 1.5661645,4.3258272 1.5963179,4.2399223 1.6334606,4.1566327 1.6671087,4.0720354 1.8619524,3.6527914 2.0866004,3.2473339 2.3344374,2.8571274 2.4576078,2.6632018 2.498447,2.6091855 2.6251546,2.4289347 2.4230661,2.5098479 2.9191682,2.1521122 2.8287265,2.1996934 c -0.075908,0.039935 -0.152099,0.084755 -0.211358,0.1467652 -0.013299,0.013917 0.016819,0.035411 0.018986,0.054538 0.00559,0.049325 0.00708,0.099318 0.00406,0.1488671 -0.00467,0.076589 -0.018042,0.1523989 -0.027064,0.2285984 C 2.4772285,3.5050247 2.2348881,4.205643 1.9831789,4.898788 1.833416,5.2746594 1.6913519,5.656742 1.4997639,6.0140397 1.4866599,6.0279237 1.4438799,6.0651727 1.4604509,6.0556917 1.5471389,6.0060877 1.639799,5.9618367 1.711858,5.892678 1.728261,5.876935 1.70086,5.848181 1.700345,5.825452 1.694585,5.5707167 1.739806,5.3136995 1.771948,5.062171 1.8237425,4.6959639 1.894239,4.332316 1.9842442,3.9735585 1.9977932,3.9195528 2.0982835,3.5369123 2.1394957,3.4594406 c 0.015416,-0.02898 0.050342,-0.042139 0.075513,-0.063209 -0.07927,0.094611 -0.1928861,0.1688692 -0.2378108,0.2838337 -0.032607,0.083442 0.02004,0.1782797 0.022233,0.2678399 0.00268,0.1093152 -0.00159,0.2187745 -0.00764,0.327955 -0.010846,0.1957351 -0.037924,0.4284168 -0.0682,0.6233913 -0.012383,0.079746 -0.028806,0.1588122 -0.043209,0.2382183 C 2.1028055,5.0017496 1.7212872,5.438515 1.8084086,5.4064809 1.914757,5.367377 2.0214936,5.3097082 2.0947195,5.2232382 2.1345251,5.1762332 2.10879,5.100807 2.1187404,5.0400209 2.1657795,4.7526628 2.1802508,4.7191302 2.2523789,4.4197309 2.3915119,3.898085 2.5923566,3.3891944 2.8715215,2.9256992 3.0393705,2.6470209 3.0908003,2.6008254 3.2907182,2.3554143 3.4798916,2.1541315 3.6813847,1.9630019 3.9021197,1.7963631 c 0.044597,-0.033668 0.1831151,-0.128139 0.1380502,-0.0951 -0.1836326,0.1346292 -0.2084392,0.058021 -0.1632864,0.1527545 -0.08228,0.2365688 -0.2805433,0.402472 -0.4673447,0.5578958 -0.054199,0.045095 -0.1209049,0.076604 -0.1666574,0.1302489 -0.029622,0.034732 0.077796,-0.047778 0.1166938,-0.071667 -0.030665,0.00985 -0.059834,0.027827 -0.091995,0.029536 -0.050038,0.00266 -0.043944,-0.050536 -0.038648,-0.077911 0.018548,-0.095875 0.075536,-0.1849322 0.1212421,-0.2693076 0.020559,-0.039732 0.071731,-0.1002682 0.029992,-0.1518626 C 3.3284574,1.9370307 3.188292,1.9132908 3.1241318,1.9011774 2.9994601,1.8776394 2.8743735,1.8691369 2.7483428,1.8576479 2.7022584,1.854189 2.6560976,1.851631 2.6100897,1.8472712 2.4749996,1.8344697 2.4859208,1.7761867 2.328283,2.0284644 c -0.020071,0.03212 0.075708,-0.00271 0.1135801,-0.00325 0.1143266,-0.00162 0.191469,-8.33e-5 0.3059845,0.00113 0.039899,8.398e-4 0.1801898,0.00203 0.230185,0.00865 0.00985,0.0013 0.019512,0.015988 0.027869,0.010606 0.081162,-0.052273 0.162831,-0.1067832 0.2296489,-0.1764615 0.021146,-0.022051 -0.057748,0.020148 -0.087275,0.027992 -0.033421,0.00888 -0.067571,0.014748 -0.1013562,0.022122 -0.02983,0.00506 -0.059457,0.011519 -0.089491,0.015179 -0.1649479,0.0201 -0.0026,-0.081848 -0.298611,0.192708 -0.013989,0.012975 0.036395,-0.011705 0.05507,-0.015614 0.058412,-0.012225 0.061011,-0.00965 0.1151581,-0.00917 0.00425,0.020707 0.00408,0.00541 -0.019854,0.030826 -0.023461,0.024918 -0.039203,0.049214 -0.067595,0.069393 -0.00839,0.00596 -0.0375,0.016926 -0.028274,0.012374 0.099984,-0.049333 0.2003838,-0.097819 0.3005757,-0.146729 0.028763,-0.020403 0.2532499,-0.170209 0.2616473,-0.1640187 0.037991,0.028006 -0.1358493,0.030477 -0.1201156,0.074975 0.015457,0.043717 0.082532,-0.042463 0.1251573,-0.060716 0.033474,-0.014334 0.068546,-0.024604 0.1028196,-0.036907 0.014899,0.00936 0.040942,0.010896 0.044696,0.028087 0.00618,0.028308 -0.00988,0.057458 -0.020098,0.08457 C 3.3766177,2.0774592 3.3185877,2.1787247 3.268288,2.2507593 3.244459,2.2848853 3.1498973,2.3595469 3.189865,2.3479283 3.276157,2.3228443 3.3429943,2.2538333 3.419559,2.206786 3.432365,2.201776 3.447936,2.201156 3.457976,2.191763 3.710978,1.9550067 3.3030253,2.2659353 3.6820376,1.9590781 3.8966732,1.7853042 4.142831,1.6522426 4.3810723,1.514854 c -0.014575,0.010943 -0.061549,0.036628 -0.043724,0.03283 0.024184,-0.00515 0.1548851,-0.080173 0.2100278,-0.053053 0.00966,0.00475 -2.982e-4,0.023388 -0.00745,0.031438 -0.033857,0.038092 -0.1754775,0.134288 -0.2023959,0.1534553 -0.04795,0.028517 -0.095898,0.057038 -0.1438492,0.085552 -0.039831,0.023686 0.097895,-0.030063 0.1194887,-0.071066 0.019743,-0.037488 -0.074276,0.040963 -0.1128571,0.058474 -0.02442,0.011083 -0.049645,0.020945 -0.07574,0.027124 -0.00853,0.00202 -0.028127,0.00553 -0.026123,-0.003 0.00242,-0.010285 0.019688,-0.00767 0.029531,-0.011508 0.055949,-0.064704 0.1255838,-0.1147789 0.1890693,-0.1711906 0.010589,-0.00941 0.035138,-0.017755 0.029385,-0.030699 -0.028649,-0.064464 -0.1455464,-0.00767 -0.167575,-0.00201 -0.055237,0.015251 -0.2884578,0.080304 -0.3416445,0.09225 -0.046217,0.010381 -0.092676,0.021966 -0.1399766,0.024509 -0.023023,0.00124 -0.073602,0.009 -0.067871,-0.013336 0.00743,-0.028957 0.060032,-0.059461 0.081114,-0.038265 0.019863,0.019971 -0.040467,0.039193 -0.0607,0.05879 0.2377679,-0.093105 0.4809819,-0.1740799 0.7288461,-0.236005 0.050146,-0.012528 0.1005324,-0.024874 0.1517303,-0.031969 0.010496,-0.00145 0.041645,0.00569 0.03109,0.00663 -0.019339,0.00172 -0.038728,-0.00282 -0.058093,-0.00423 0.06298,-0.038183 0.1288588,-0.071952 0.188941,-0.1145498 0.028709,-0.020355 -0.062869,0.03165 -0.094312,0.047458 -0.092548,0.04653 -0.2392536,0.1116798 -0.2381591,0.2319423 5.68e-4,0.062403 0.1246134,0.00713 0.1868479,0.011751 0.086041,0.00639 0.1719719,0.014174 0.2579579,0.021261 0.2130345,0.022554 0.342746,0.033439 0.5521714,0.06631 0.087176,0.013683 0.2628653,0.039022 0.3527344,0.086052 0.080846,0.042308 0.049783,0.051291 0.014225,0.096949 -0.031527,0.019746 -0.1248832,0.080814 -0.09458,0.059238 0.040246,-0.028655 0.1619154,-0.048302 0.1244463,-0.080503 -0.039509,-0.033954 -0.094426,0.044043 -0.1418917,0.06551 -0.098048,0.044344 -0.1972411,0.085344 -0.2937865,0.1328871 -0.00957,0.00493 -0.028465,0.00402 -0.028716,0.014787 -0.00171,0.073284 0.034235,0.03262 0.042608,0.019473 0.030586,-0.048028 0.041563,-0.1114677 0.057284,-0.164911 0.028462,-0.09087 0.052558,-0.1838555 0.08968,-0.2718014 0.042589,-0.1008976 0.098337,-0.1939235 0.156662,-0.2861873 0.045301,-0.068634 0.093089,-0.1356046 0.1366265,-0.2053981 0.0085,-0.013629 0.046206,-0.0753 0.053297,-0.093256 0.00536,-0.013582 0.0071,-0.02833 0.010646,-0.042496 0.00412,-0.11484109 -0.044093,-0.15141439 -0.1434816,-0.19249702 -0.026598,-0.00546 -0.052948,-0.0123131 -0.079795,-0.0163806 -0.083112,-0.0125922 -0.1962939,-0.020227 -0.2769039,-0.0234954 -0.1193437,-0.004839 -0.2441436,-0.006165 -0.3633189,0.003802 -0.059476,0.004974 -0.1184093,0.0150999 -0.177614,0.0226498 C 4.6482368,0.84105504 4.6015465,0.8464195 4.4603211,0.89834074 4.158315,1.0093727 3.8635046,1.2041444 3.5904633,1.3653554 3.319495,1.5351191 3.0757282,1.7422647 2.8356012,1.9521853 2.6076024,2.1551073 2.374356,2.3522777 2.1622082,2.572031 1.9636485,2.7874051 1.7646605,3.0023958 1.5676177,3.2191602 1.4323283,3.3783155 1.3035863,3.5431302 1.1902907,3.7187947 1.1425392,3.7928332 1.0831973,3.8943265 1.0381696,3.9701414 1.0165088,4.0048059 0.93736104,4.1390176 0.90049448,4.1717577 0.87899162,4.1908537 0.80201589,4.2299761 0.82371324,4.2111013 1.2177033,3.8683656 1.0537528,4.1591767 0.99187297,4.0159109 0.98019941,3.988884 0.98155224,3.957942 0.97639187,3.9289576 0.99264168,3.8774429 1.0033417,3.8238363 1.0251413,3.7744137 1.1035414,3.5966698 1.1918685,3.4762116 1.3230188,3.3280446 1.4810873,3.1494669 1.6836391,2.9679794 1.8681233,2.8190618 1.9725947,2.7347315 2.0824317,2.6572736 2.1895859,2.5763795 2.508492,2.3653924 2.5249428,2.3461909 2.8537141,2.1608697 c 0.027964,-0.015763 0.0588,-0.025893 0.087262,-0.040737 C 3.1857591,1.9924662 3.4272007,1.8576898 3.6686646,1.723877 4.0349105,1.5152488 4.4000003,1.3044645 4.7532014,1.074287 4.6760677,1.1176652 4.9332185,0.95547898 4.8862095,0.98198362 4.8033614,1.0286951 4.7247495,1.0828665 4.6406477,1.1272811 c -0.0052,0.00274 -0.011746,-0.010987 -0.016145,-0.00709 -0.014934,0.013235 -0.02115,0.033863 -0.032546,0.050243 -0.024648,0.035427 -0.050373,0.070092 -0.075559,0.1051388 C 4.059864,1.8274723 3.5241756,2.3064817 2.9990138,2.791088 2.5515532,3.193277 2.1339671,3.6300235 1.7678639,4.1080143 1.5820102,4.3506681 1.5082882,4.4703726 1.3425052,4.7201445 1.1931704,4.9499571 1.052186,5.1854486 0.92425317,5.4278909 0.90237626,5.4693493 0.81929035,5.6329795 0.7978538,5.6910971 c -0.008912,0.02416 -0.0124831,0.049967 -0.0187246,0.074951 0.006177,0.016239 0.007019,0.035703 0.0185303,0.048716 0.0406848,0.045992 0.11907864,0.021902 0.16765851,0.012108 0.0529219,-0.01067 0.10557259,-0.022643 0.15838869,-0.033825 0,0 0.2502883,-0.1896621 0.2502883,-0.1896621 v 0 C 1.327901,5.612445 1.2660258,5.624358 1.2192919,5.634383 1.2014739,5.638203 1.0977467,5.667946 1.0792292,5.656491 1.0702692,5.650941 1.0694392,5.637819 1.0645472,5.628483 1.0688772,5.606445 1.0707672,5.583784 1.0775372,5.562369 1.0978222,5.498183 1.1612182,5.3608022 1.1859402,5.3102609 1.3031026,5.0707365 1.4376534,4.8400094 1.5812691,4.6154848 1.7408263,4.3700306 1.8131333,4.2497887 1.9932165,4.0117702 2.3565071,3.5316043 2.7766678,3.0982488 3.2258459,2.6981995 3.7650733,2.2008717 4.3117281,1.7080723 4.7953531,1.1550618 4.8121782,1.1326816 4.908889,1.0208432 4.9148415,0.9681187 4.9166352,0.95223185 4.9094218,0.91868545 4.8945854,0.92464264 4.7364005,0.98815761 4.6027047,1.0905718 4.4651798,1.186686 4.3111087,1.2877771 4.1554022,1.3865181 3.9971411,1.4809545 3.9411184,1.514384 3.8839039,1.545798 3.8280561,1.5795189 3.8086504,1.5912361 3.8678703,1.5578318 3.8877775,1.5469883 3.6408265,1.6854448 3.3914544,1.8192948 3.1438808,1.9565901 2.9254687,2.0777135 2.5261891,2.2975158 2.2902723,2.4466555 2.177559,2.5179096 2.0684633,2.5947316 1.9575588,2.6687696 1.8498783,2.7504599 1.7395776,2.8288067 1.6345173,2.9138404 1.4451686,3.0670953 1.239685,3.2511782 1.0764858,3.4335991 0.94293896,3.5828752 0.83850792,3.7195021 0.7569028,3.900861 0.731838,3.956565 0.7197639,4.0172456 0.7011944,4.0754379 0.7136177,4.1432479 0.721853,4.2533291 0.7736034,4.2425547 0.89519925,4.2172385 1.0045649,4.1506771 1.1169103,4.0977151 1.1420409,4.085868 1.1654219,4.0691176 1.1844495,4.0488729 1.2157463,4.0155743 1.2949612,3.8794453 1.3141944,3.8476878 1.3588619,3.7728187 1.4183046,3.6715409 1.4658386,3.598459 1.5792813,3.4240451 1.70792,3.2600658 1.8442503,3.1030635 2.0425898,2.8858082 2.242767,2.670255 2.443327,2.4550542 2.6547455,2.2373072 2.8857064,2.040364 3.1129685,1.8395081 3.3529373,1.6307805 3.5972266,1.4259443 3.8682204,1.2579138 3.8308316,1.2779313 3.7213641,1.342364 3.756054,1.3179665 3.8034435,1.2846373 3.8556228,1.2586416 3.9065256,1.2309737 4.111821,1.1193862 4.3277402,1.0285442 4.5583458,0.98495477 c 0.058845,-0.008379 0.1173617,-0.0195252 0.1765347,-0.0251373 0.2302929,-0.0218414 0.4648248,-0.0053 0.6911585,0.0404691 0.078894,0.029701 0.1317139,0.057894 0.1179665,0.15233 -0.040856,0.1203503 -0.1301845,0.2185384 -0.192168,0.3279225 -0.057004,0.094756 -0.1127928,0.1901791 -0.1553592,0.292588 -0.037038,0.089109 -0.060639,0.1833883 -0.0926,0.2742732 -0.019807,0.055137 -0.034793,0.1112049 -0.073158,0.1566568 -0.0059,0.00699 -0.020177,0.010524 -0.019181,0.019614 0.00716,0.065401 0.034658,0.033226 0.059986,0.017977 C 5.3835783,2.07123 5.7440234,1.9781708 6.0124105,1.7333938 6.0173005,1.7073008 6.0371385,1.6796868 6.0270915,1.6551128 6.0012956,1.5920203 5.8353191,1.5644871 5.8059579,1.5584863 5.5512275,1.5064251 5.2895931,1.494537 5.0330444,1.4550249 4.9511466,1.4449178 4.8692358,1.434915 4.7873508,1.4247035 4.7316348,1.4177554 4.6738148,1.386738 4.6202421,1.4035463 c -0.11713,0.036749 -0.2158795,0.1169439 -0.3239262,0.1752178 -0.019832,0.010696 0.039233,-0.022198 0.05928,-0.032484 0.030657,-0.015729 0.062607,-0.028935 0.092797,-0.045543 C 4.567009,1.4354824 4.6840583,1.367419 4.801891,1.3007601 4.809221,1.2792121 4.834444,1.2562811 4.823886,1.2361171 4.815266,1.2196461 4.786411,1.2329671 4.76811,1.2362444 4.712888,1.2461344 4.65864,1.2609784 4.6044297,1.2754214 4.3579882,1.3410764 4.115121,1.4202308 3.8750521,1.506062 3.7241428,1.586149 3.5640399,1.6509063 3.4223243,1.746322 c -0.1399725,0.094242 -0.030409,0.1169502 0.033774,0.1134435 0.049697,-0.00272 0.098312,-0.015963 0.1468853,-0.026818 0.1106818,-0.024734 0.2186929,-0.060548 0.3298274,-0.083509 0.051516,-0.012761 0.12749,-0.013843 0.1147274,-0.061373 -0.00277,-0.010303 -0.013833,0.016315 -0.021688,0.023534 -0.066009,0.060665 -0.1402155,0.1136553 -0.1916785,0.1886368 -5.387e-4,0.02063 -0.012066,0.044095 -0.00162,0.061891 0.016921,0.028816 0.089423,-7.786e-4 0.1296873,-0.018653 0.040373,-0.017922 0.07915,-0.039326 0.1176724,-0.06094 0.3277735,-0.1839078 0.305357,-0.1720517 0.5362322,-0.3133312 0.043458,-0.032206 0.090744,-0.059804 0.1303749,-0.096617 0.012353,-0.011475 0.1357276,-0.1157932 0.055776,-0.1631936 -0.025874,-0.01534 -0.06101,-0.00699 -0.090239,1.144e-4 C 4.5428831,1.3506188 4.1793343,1.5822276 4.1223836,1.6142256 3.8807399,1.7554466 3.6324979,1.8929168 3.4138269,2.0692558 3.3795663,2.096884 3.1967817,2.262546 3.1669968,2.327031 3.1554188,2.352098 3.1679887,2.382246 3.1684868,2.409854 3.2695213,2.3488724 3.3771599,2.2976858 3.4715945,2.2269101 3.5025408,2.2037169 3.613781,2.0133672 3.6232487,1.9954627 3.6522803,1.9405608 3.7230614,1.8139899 3.6955734,1.7381177 3.6861635,1.7121446 3.6497776,1.7072092 3.6268796,1.691755 3.5904068,1.7043409 3.5530535,1.7146178 3.5174611,1.7295126 3.3711674,1.7907342 3.0547893,1.9779957 2.993877,2.0125805 2.943774,2.041028 2.8149323,2.1152543 2.7659893,2.1574723 c -0.018464,0.015927 -0.03086,0.037761 -0.04629,0.056642 0.1518611,-0.059537 0.2636878,-0.060099 0.353071,-0.1714194 0.019687,-0.024519 0.046787,-0.057902 0.040701,-0.093667 -0.00236,-0.013841 -0.016153,-0.02297 -0.02423,-0.034455 -0.08029,-0.00422 -0.032232,-0.00457 -0.1197482,0.00393 -0.017777,0.00173 -0.038326,-0.00495 -0.053378,0.00467 -0.3783945,0.2416601 -0.335858,0.2173582 -0.1167838,0.183786 0.033261,-0.00646 0.066459,-0.013252 0.099782,-0.019383 0.027984,-0.00515 0.059747,2.114e-4 0.084128,-0.014458 0.1023742,-0.061596 0.2007317,-0.1312353 0.2899995,-0.2106443 0.010865,-0.00967 -0.028099,-0.00827 -0.042594,-0.00944 C 3.1964278,1.8502736 3.010115,1.8501936 2.9910694,1.8501036 2.8819112,1.8484932 2.8012448,1.8480789 2.692672,1.843492 2.6588472,1.8420629 2.6220036,1.8231905 2.5912883,1.8374289 2.0678549,2.0800722 2.2224538,2.0223002 2.364154,2.0239576 c 0.04821,5.639e-4 0.096376,0.00315 0.1445636,0.00472 0.144257,0.011226 0.2259811,0.013157 0.3687243,0.042318 0.020735,0.00424 0.1864999,0.040466 0.2209092,0.078774 0.033072,0.03682 -0.020824,0.1092146 -0.031241,0.1302688 -0.042633,0.081845 -0.1645278,0.2763666 -0.1066404,0.3705746 0.012722,0.020704 0.037042,0.038168 0.061308,0.03944 0.036224,0.0019 0.069591,-0.020503 0.104386,-0.030755 C 3.2545534,2.5843843 3.3866449,2.5154806 3.5113316,2.4345523 3.5788231,2.3907466 3.7998197,2.1942461 3.8496386,2.1460703 3.957182,2.0420739 4.0539122,1.9486359 4.1199699,1.8133705 4.1383816,1.7756693 4.1426109,1.7325692 4.1539314,1.6921685 4.1395462,1.6725135 4.1340843,1.6261345 4.1107759,1.6332035 3.8074743,1.7251897 3.4915548,2.0106341 3.2690369,2.2298473 3.1934932,2.3042691 3.1218855,2.3825832 3.0483098,2.4589512 2.853786,2.7055913 2.8058164,2.7498899 2.6420541,3.0286729 2.3663312,3.4980535 2.1687757,4.0105831 2.0176542,4.5320669 1.8864144,5.0240718 1.9647957,4.7181466 1.856242,5.1675904 1.8400007,5.2348338 1.7435328,5.3411379 1.8067877,5.3691427 2.0762099,5.4884238 2.0858343,5.3064899 2.1057484,5.187905 2.1155354,5.129625 2.125001,5.0712914 2.1346273,5.0129845 2.1896986,4.6182273 2.2360154,4.2206059 2.2443855,3.8216488 c 0.00199,-0.094748 0.064948,-0.21884 -0.0036,-0.2842839 C 2.1646165,3.4646409 2.0305924,3.5239109 1.9254958,3.5171849 1.8422108,3.63766 1.8793938,3.5689459 1.8214477,3.794416 1.7965907,3.891135 1.7738027,3.9883819 1.7514657,4.0857136 1.6681937,4.4485662 1.5948583,4.8136665 1.5314997,5.1805232 c -0.018743,0.124512 -0.068772,0.451102 -0.085847,0.5853093 -0.00877,0.068929 -0.021882,0.1377758 -0.022285,0.2072593 -2.047e-4,0.035265 -0.014489,0.1083559 0.02048,0.1037954 C 1.6896714,6.0448286 1.7042213,6.0061914 1.7847503,5.885016 1.9480021,5.5272139 2.0824001,5.1565452 2.2196639,4.7883135 2.4647945,4.0859794 2.6988037,3.3783797 2.8678995,2.653259 2.8845298,2.5523684 2.9270074,2.3619611 2.9119522,2.2473201 2.9076258,2.214376 2.9060443,2.1491828 2.8734032,2.1553948 2.6094898,2.205621 2.4981301,2.349965 2.364326,2.5426589 2.2474546,2.7177857 2.205016,2.7780184 2.0904855,2.9651525 1.8478075,3.3616698 1.6256582,3.7708699 1.4179286,4.1866391 c -0.040061,0.08895 -0.085117,0.1758151 -0.1201842,0.2668497 -0.022222,0.057687 -0.04767,0.1165172 -0.051264,0.1782319 -0.00148,0.025412 0.012964,0.0752 0.036994,0.066804 C 1.512267,4.6185903 1.5688411,4.5644326 1.6741569,4.4112305 1.7059246,4.3650183 1.7352356,4.3171644 1.7657749,4.2701313 2.0805489,3.7547606 2.3839275,3.2315775 2.6494976,2.6888651 2.7000066,2.5839184 2.8311659,2.3243774 2.8705189,2.1992904 2.8825872,2.1609306 2.9267143,2.0798433 2.8865011,2.0797135 2.6868144,2.0790689 2.582711,2.1797946 2.478412,2.3065435 2.225341,2.6216838 1.9829033,2.9466796 1.7948953,3.3059605 1.7133877,3.4710212 1.653083,3.5772213 1.5964113,3.7509844 1.5788398,3.804861 1.5605963,3.85985 1.5572463,3.9164205 1.5550031,3.9543007 1.5425447,4.033991 1.5800092,4.0279612 1.7021055,4.0083101 1.8051483,3.9241774 1.9105862,3.8595514 1.945321,3.8382614 1.967887,3.801623 1.9965373,3.7726588 2.328782,3.3487383 2.6666942,2.9294581 3.0165119,2.5197982 3.0305874,2.5026992 3.2472158,2.2517475 3.2749855,2.1841238 3.2854821,2.1585631 3.2996151,2.0930295 3.273233,2.1012463 3.0973493,2.156026 2.9446112,2.2964525 2.8038819,2.412994 2.4496167,2.707712 2.0838806,2.9915565 1.6914079,3.2339 1.7348,3.2106836 1.7751295,3.1804941 1.821584,3.1642507 c 0.027309,-0.00955 -0.049759,0.0301 -0.071537,0.049145 -0.00764,0.00668 -0.017053,0.036458 -0.014984,0.026518 0.00334,-0.016047 0.011067,-0.030999 0.018913,-0.04539 0.037556,-0.068882 0.086515,-0.1354554 0.1307296,-0.1995366 0.034159,-0.041765 0.066549,-0.085041 0.1024763,-0.1252948 0.079088,-0.088611 0.1900299,-0.1956258 0.279005,-0.2724765 0.054578,-0.04714 0.1120445,-0.090828 0.1680667,-0.136242 0.056373,-0.039442 0.1168692,-0.073565 0.1691197,-0.1183256 0.018006,-0.015424 -0.043279,0.019375 -0.064919,0.029062 0.1679653,-0.093265 0.1752081,-0.1020455 0.3421048,-0.1777078 0.035959,-0.016302 0.073864,-0.028202 0.1093721,-0.045464 0.014419,-0.00701 0.028582,-0.015566 0.039777,-0.027043 0.00367,-0.00376 0.00556,-0.019392 0.00187,-0.015653 -0.00818,0.00829 -0.01114,0.020455 -0.016711,0.030683 C 2.8769919,2.3265819 2.7191498,2.5009009 2.5652615,2.6779191 2.4141834,2.8555728 2.261866,3.0324937 2.1234147,3.220334 c 0,0 0.297981,-0.1295708 0.297981,-0.1295708 z"
     id="path949"
     style="fill:#ff6767;fill-opacity:1;stroke:none;stroke-width:0.032;stroke-linecap:round;stroke-linejoin:bevel;stroke-miterlimit:4;stroke-dasharray:none;stroke-opacity:1" />
  <path
     d="m 6.3043912,1.4028493 c 0.00546,-0.00675 0.010237,-0.014126 0.016391,-0.020254 0.00741,-0.00738 0.032983,-0.025567 0.024096,-0.020065 -0.07962,0.049294 -0.1753007,0.080729 -0.2365285,0.1515836 -0.019875,0.023 0.060208,0.0098 0.089213,0.018894 0.098229,0.030795 0.2603232,0.1031628 0.3474437,0.1402173 0.2164495,0.097082 0.2471248,0.1089542 0.4591775,0.2114663 0.1164706,0.056305 0.2563722,0.1224369 0.3646504,0.1960396 0.1335032,0.09075 0.1693007,0.1367617 0.2826929,0.2495561 0.2185877,0.2475871 0.3829553,0.5353741 0.5415658,0.8232879 0.1553519,0.2897765 0.3577075,0.551008 0.5563233,0.8118657 0.3209493,0.4158062 0.6769902,0.8029703 1.0539823,1.1683748 0.080803,0.078319 0.1640039,0.1541255 0.2460054,0.2311883 0.210045,0.1885528 0.428291,0.3675073 0.65036,0.5416102 0.07776,0.060961 0.194006,0.1534437 0.281117,0.2094831 0.02796,0.017986 0.05816,0.032223 0.08724,0.048334 0.159774,0.040568 0.125287,0.046099 0.370266,-0.1604911 0.0211,-0.01779 2.5e-4,-0.055701 -0.0061,-0.082567 -0.01161,-0.049432 -0.02956,-0.097227 -0.04733,-0.144791 C 11.335744,5.6447904 11.269261,5.5009945 11.212432,5.3731878 11.025221,4.9742523 10.821332,4.5777099 10.588928,4.2029626 10.543984,4.1304911 10.49638,4.0597039 10.450106,3.9880746 10.124613,3.5457831 9.7198846,3.1727514 9.3111573,2.8095131 9.0500616,2.5797915 8.7870956,2.3521897 8.5203762,2.1290168 8.3010007,1.950349 8.0797422,1.7742331 7.8614668,1.5942099 7.64165,1.4128156 7.4342318,1.2163729 7.2096334,1.0406992 7.1679367,1.0080854 7.1247757,0.97738837 7.0823468,0.94573294 6.8858531,0.81328531 6.6944954,0.66129452 6.4713548,0.57471552 6.4278151,0.55782205 6.3825484,0.54577101 6.3381452,0.53129876 6.0711952,0.44944549 5.8380198,0.47278281 5.5692061,0.52083451 5.3581691,0.55839089 5.1563052,0.63006802 4.955205,0.70199824 4.7924638,0.7585534 4.6318156,0.82122311 4.4751589,0.89294795 4.1870718,1.028355 3.913159,1.190777 3.6426218,1.3580696 3.4036198,1.5121928 3.1913614,1.7022399 2.9827653,1.8943232 2.8231938,2.0347657 2.6831987,2.1944238 2.5651824,2.3713949 2.46614,2.5199137 2.4121809,2.6271236 2.3252311,2.7856619 2.1067967,3.1946805 1.9069438,3.6133199 1.711781,4.0338323 1.6203228,4.2365279 1.5348372,4.4418788 1.4441614,4.6449144 1.3587203,4.8362289 1.2674754,5.0245123 1.1835631,5.2165221 1.07366,5.4743317 0.99427619,5.7438913 0.97543141,6.0246168 0.96185324,6.2268869 0.97314036,6.2831136 0.98804904,6.484467 1.0296821,6.7727104 1.1199074,7.0517513 1.2415142,7.3159448 c 0.075253,0.1634885 0.1250282,0.2451736 0.2130956,0.402719 0.1849104,0.3332651 0.439011,0.6179646 0.7029111,0.8898003 0.070523,0.070919 0.0716,0.073688 0.1366595,0.1339534 0.1016471,0.094157 0.096855,0.067062 0.3121728,-0.1492393 0.019114,-0.019202 -0.02916,-0.045678 -0.044287,-0.068155 C 2.5374027,8.4883757 2.5120168,8.4522199 2.4869923,8.4158184 2.1695139,7.9815464 1.9003909,7.5147114 1.6369586,7.0464745 1.5042919,6.7966197 1.3574743,6.5495468 1.2744128,6.2771576 1.2564933,6.2183928 1.2394188,6.1590052 1.2298341,6.0983212 1.2197553,6.0345079 1.2203698,5.9694596 1.2156376,5.9050288 1.2204062,5.7055592 1.25593,5.5084361 1.3268663,5.3215564 1.3993679,5.130553 1.5072235,4.9588874 1.6156602,4.787143 1.8168198,4.4871042 2.0621772,4.2209087 2.3105639,3.959985 2.5104258,3.753094 2.7151089,3.5509493 2.9192473,3.3483015 3.115744,3.1542579 3.308532,2.9564687 3.5083527,2.7658328 3.6471888,2.6402309 3.7992401,2.5310757 3.9604577,2.4361204 c 0.021025,-0.012384 -0.08273,0.050543 -0.059781,0.042251 0.070344,-0.025416 0.134574,-0.065522 0.2036404,-0.09423 C 4.186596,2.3499422 4.2710492,2.3212297 4.354415,2.2897738 4.4416044,2.26211 4.5283411,2.2329766 4.6159832,2.2067824 4.7462695,2.1678429 4.9981619,2.1005395 5.13087,2.0666749 5.2822328,2.02805 5.4789291,1.9797807 5.6324881,1.9501261 c 0.089386,-0.017262 0.1795058,-0.030481 0.2692588,-0.045722 0.3819259,-0.054102 0.7676877,-0.08936 1.1531663,-0.053911 0.2711285,0.024933 0.3465708,0.048972 0.6097442,0.1050409 0.2751508,0.076775 0.556292,0.1568573 0.7998823,0.3113173 0.1023204,0.064881 0.1318748,0.096323 0.2209162,0.1739951 0.084203,0.081126 0.1550829,0.1740073 0.2249907,0.2672461 0.029888,0.039863 0.057391,0.079546 0.093085,0.1143033 C 9.0914267,2.7575424 9.1917248,2.7067815 9.2672161,2.6278351 9.280185,2.6142726 9.2432618,2.5988456 9.2297953,2.5857771 9.2083587,2.5649741 9.1861751,2.5448425 9.1626832,2.526392 9.0343241,2.4255792 8.894186,2.3390378 8.7570601,2.251047 8.4119217,2.0369774 8.0457972,1.8598107 7.6790541,1.6864333 7.3713953,1.5426187 7.0556442,1.4178587 6.7386436,1.2965008 6.5185878,1.2116788 6.2944669,1.1292478 6.0598524,1.0953475 6.0153156,1.0889122 5.9703405,1.0859997 5.9255845,1.0813258 5.8796466,1.0798566 5.8337148,1.0756526 5.7877709,1.0769183 5.54516,1.0836017 5.2616295,1.1337279 5.0288107,1.2015857 4.9531453,1.2236393 4.8791734,1.251135 4.8043547,1.2759097 4.5053215,1.383858 4.2064429,1.5015513 3.9275381,1.6556796 3.5651235,1.8559571 3.5854261,1.8467324 3.3282889,2.011552 3.2773272,2.0467472 3.2259065,2.0812871 3.1754036,2.1171377 3.0692641,2.1924829 3.0031773,2.2407944 2.9059778,2.3268044 2.7442677,2.4698987 2.5970572,2.6270073 2.4501251,2.7848556 2.3012724,2.9689218 2.0963205,3.1430139 2.0593073,3.3906641 c -0.025439,0.1702089 0.00855,0.2124029 0.055687,0.388618 0.05199,0.093317 0.1039803,0.1866346 0.1559704,0.2799519 0,0 0.2320995,-0.1326725 0.2320995,-0.1326725 v 0 C 2.4573398,3.8324211 2.4116158,3.7382807 2.3658919,3.6441403 2.3326712,3.475691 2.3026653,3.4217428 2.3310172,3.2619696 2.3728567,3.0261887 2.5694697,2.8515853 2.7133027,2.6748604 2.8394459,2.5414644 2.894302,2.4794371 3.0270044,2.3546289 3.2042185,2.187957 3.3958008,2.0384973 3.5997944,1.9059326 3.6551562,1.8706987 3.7117129,1.8372755 3.7658798,1.8002308 3.785167,1.7870403 3.6836528,1.8446244 3.7045947,1.83426 3.7727035,1.800552 3.839129,1.763494 3.9074295,1.7301761 4.1257067,1.6236973 4.3498463,1.5288787 4.5797198,1.4503334 c 0.072496,-0.023902 0.1442374,-0.05023 0.2174889,-0.071707 0.2846264,-0.083451 0.5835675,-0.1326363 0.8804395,-0.120834 0.1204828,0.010991 0.1456729,0.00985 0.2643923,0.034442 0.1879273,0.038932 0.3694485,0.1034519 0.5485484,0.171141 0.3185712,0.1187936 0.6336796,0.2458949 0.9440667,0.3848505 0.3676251,0.1683386 0.7333485,0.343768 1.0746871,0.5617592 0.1326932,0.088239 0.2667519,0.1750121 0.3861899,0.2812325 0.020941,0.018624 0.040507,0.038807 0.059306,0.059591 0.011259,0.012447 0.014695,0.04498 0.030695,0.039912 C 9.0894091,2.7578188 9.1815709,2.695537 9.2795894,2.647945 9.2371069,2.6245868 9.2087622,2.5850165 9.1779726,2.5483745 9.1015537,2.45743 9.0282829,2.3635995 8.9434657,2.2800637 8.85042,2.2011095 8.8204533,2.1697607 8.713491,2.1045487 8.4606468,1.9503963 8.1688743,1.8786047 7.8862021,1.8015559 7.6188479,1.7448729 7.547621,1.7225769 7.2731778,1.6938691 7.1706449,1.6831438 7.0676782,1.6751223 6.9646087,1.6729557 6.6827708,1.6670312 6.4017946,1.7058424 6.1227112,1.7382841 6.03349,1.752537 5.9438608,1.7644356 5.8550478,1.7810429 5.7044968,1.8091945 5.499645,1.8596616 5.3515092,1.8975032 5.2246571,1.9299079 4.958916,2.0011827 4.8343342,2.0377791 4.7470211,2.0634277 4.6604614,2.0915748 4.573525,2.1184727 4.4918434,2.1476913 4.4090338,2.1739301 4.3284802,2.2061284 4.1001272,2.2974042 3.9065033,2.4150242 3.6895747,2.5414427 3.5247334,2.6375066 3.3727412,2.7539001 3.2301716,2.8802367 3.0288568,3.070976 2.8356709,3.2700362 2.6381265,3.4646612 2.4354529,3.666748 2.2320342,3.8681777 2.0344614,4.0752826 1.7892573,4.3372301 1.5460789,4.6042364 1.3486444,4.9049611 1.2418117,5.0789466 1.1355479,5.2531195 1.064277,5.4456639 0.99374754,5.6362051 0.960022,5.8366226 0.95670683,6.0393641 c 0.004882,0.066289 0.004023,0.133253 0.0146455,0.1988672 0.009963,0.061536 0.0280641,0.1216107 0.0468626,0.1810465 0.086346,0.2730033 0.2407503,0.5171817 0.3782458,0.7659473 0.2709685,0.4641399 0.5456418,0.9260014 0.8269941,1.3839132 0.021259,0.03796 0.043736,0.075264 0.063777,0.1138813 0.00953,0.018365 0.005,0.06274 0.024844,0.056884 C 2.8675138,8.57599 2.6589512,8.6422566 2.5620557,8.575456 2.5110863,8.5403173 2.4597844,8.4910652 2.4147122,8.4507832 2.142955,8.189141 1.8890493,7.9061923 1.7016013,7.5766064 1.6646478,7.5096708 1.6257822,7.4437557 1.5907408,7.3757996 1.4251121,7.0545936 1.2921843,6.7123186 1.2412516,6.3531493 1.2270061,6.1501182 1.2159571,6.101657 1.2323912,5.897686 1.254887,5.6184811 1.3390189,5.3513272 1.4485063,5.0949332 1.6195315,4.6989862 1.8032379,4.3084789 1.9760371,3.9132693 2.1677954,3.4948105 2.360935,3.0765326 2.5804145,2.6716718 2.6812518,2.4959095 2.7204347,2.4178378 2.8340515,2.2554387 2.9570877,2.0795757 3.1032134,1.9227415 3.2627719,1.7797225 3.4725835,1.5873018 3.6870795,1.3980554 3.9294823,1.2469917 c 0.033462,-0.020599 0.1359105,-0.078596 0.1003875,-0.061797 -0.056167,0.026561 -0.1081645,0.061171 -0.1625583,0.091197 -0.032822,0.018118 0.06482,-0.037719 0.097841,-0.055473 0.014109,-0.00759 0.1650858,-0.08336 0.1812529,-0.091389 0.027207,-0.013512 0.054533,-0.026781 0.0818,-0.040171 C 4.3850389,1.0151257 4.5465372,0.9509567 4.7101465,0.8932466 4.9118787,0.821007 5.1133376,0.74580017 5.3245903,0.70552018 c 0.2619801,-0.0505604 0.5007326,-0.0802103 0.7625984,-0.00357 0.0434,0.0137883 0.087597,0.0252806 0.1301989,0.041365 0.2227971,0.0841169 0.4168005,0.23007767 0.6119616,0.36260972 0.1314293,0.097087 0.2599644,0.1968034 0.384653,0.3025188 0.1504224,0.1275334 0.1201407,0.1071638 0.2678784,0.2358329 0.04186,0.036457 0.084554,0.071946 0.1268309,0.1079192 0.2154172,0.1829156 0.431377,0.3647702 0.6553058,0.5372746 0.2707335,0.2210883 0.5392063,0.4449678 0.8072727,0.669274 0.4133467,0.3545922 0.8214257,0.7232122 1.137254,1.1705783 0.04684,0.07088 0.09522,0.1407647 0.14052,0.2126398 0.235253,0.3732783 0.434261,0.768712 0.615216,1.1706667 0.05901,0.1412449 0.114279,0.2606554 0.155919,0.4076148 0.01335,0.047113 0.02484,0.095217 0.02905,0.1440044 0.0017,0.020089 -0.03087,0.064996 -0.0115,0.059387 0.08993,-0.026046 0.172634,-0.075407 0.249817,-0.1284078 0.01642,-0.011278 -0.03982,-0.00141 -0.05973,-0.00212 -0.03122,-0.01314 -0.06374,-0.023522 -0.09365,-0.03942 C 11.137586,5.9023329 11.023383,5.8186198 10.937859,5.7563869 10.7087,5.5896359 10.48647,5.413557 10.273334,5.226673 10.190621,5.1504274 10.106176,5.0760176 10.025193,4.9979362 9.6492426,4.6354551 9.3049029,4.2399637 8.9940697,3.8205063 8.804218,3.5550027 8.6181805,3.2857323 8.4561532,3.0021123 8.291399,2.7143472 8.1204786,2.4276787 7.9014737,2.1770472 7.7929008,2.0688234 7.7422512,2.0079147 7.6134762,1.9217977 7.5008356,1.8464704 7.359832,1.7866584 7.2385215,1.7297284 6.9489293,1.5938251 7.0743496,1.6533994 6.7852924,1.513817 6.7062516,1.4756459 6.5443238,1.3963923 6.4558378,1.3570306 6.4263518,1.3439146 6.3970968,1.3105716 6.3662988,1.3202106 6.192337,1.3746566 6.096661,1.4181276 6.0027348,1.5317283 c 0,0 0.3016565,-0.1288791 0.3016564,-0.128879 z"
     id="path951"
     style="fill:#ff6767;fill-opacity:1;stroke:none;stroke-width:0.032;stroke-linecap:round;stroke-linejoin:bevel;stroke-miterlimit:4;stroke-dasharray:none;stroke-opacity:1" />
</svg>
